<?xml version="1.0" encoding="UTF-8" standalone="no"?>
<svg
   version="1.0"
   width="1350.000000pt"
   height="1350.000000pt"
   viewBox="0 0 1350.000000 1350.000000"
   preserveAspectRatio="xMidYMid meet"
   id="svg52"
   sodipodi:docname="Logo-with-text.svg"
   inkscape:version="1.3.2 (091e20e, 2023-11-25, custom)"
   xml:space="preserve"
   inkscape:export-filename="Logo-TRANSPARENT.svg"
   inkscape:export-xdpi="96"
   inkscape:export-ydpi="96"
   xmlns:inkscape="http://www.inkscape.org/namespaces/inkscape"
   xmlns:sodipodi="http://sodipodi.sourceforge.net/DTD/sodipodi-0.dtd"
   xmlns="http://www.w3.org/2000/svg"
   xmlns:svg="http://www.w3.org/2000/svg"><defs
     id="defs52"><rect
       x="429.17832"
       y="761.70962"
       width="1022.1652"
       height="275.19831"
       id="rect1036" /><clipPath
       clipPathUnits="userSpaceOnUse"
       id="clipPath1016"><path
         d="m -400.79087,-463.23332 c 57.76121,-19.9302 55.92765,-19.10675 66.6091,-29.42308 13.43092,-12.81641 20.02791,-30.62454 18.97055,-50.83077 -0.41712,-8.82248 -4.85359,-22.41724 -9.44355,-29.21301 -11.01604,-16.56281 -29.83861,-26.82735 -49.47642,-26.9088 -8.66468,-0.0573 -13.81831,1.24273 -51.09349,13.0635 l -39.20381,12.35967 -5.81971,-1.6404 c -7.08484,-1.95578 -13.57085,-6.85287 -17.30654,-12.98514 -2.31103,-3.76154 -2.88162,-5.785 -3.48671,-12.01428 -1.05088,-10.7194 1.25324,-17.07716 9.12206,-24.76687 l 4.361,-4.30368 33.10129,-11.3752 c 39.42432,-13.59311 42.58617,-14.22773 52.23446,-9.33279 7.37067,3.75807 11.42193,8.94144 14.78082,18.99519 2.43994,7.3032 2.66154,7.6509 5.28642,7.93371 1.73936,0.15692 7.7783,-1.33347 15.0815,-3.77342 16.31363,-5.45026 15.99783,-4.81759 10.16904,-19.73957 -6.65245,-17.07175 -14.84895,-26.14189 -30.76059,-34.00511 -10.50233,-5.24216 -23.05812,-7.47885 -36.02279,-6.52126 -7.77873,0.70102 -10.75067,1.58844 -42.7138,12.58339 -34.80852,11.94557 -37.27432,13.08568 -44.98577,19.66851 -5.72032,4.96871 -8.50107,8.00635 -12.35527,13.51139 -10.42514,15.18606 -13.70359,30.30397 -10.27593,48.45311 6.34789,34.14827 36.43699,57.30721 69.66999,53.58463 2.5296,-0.31795 21.75245,-5.8967 42.71378,-12.58343 l 38.16049,-12.01111 4.55438,1.00882 c 9.70972,2.23858 15.75319,7.38897 18.82645,15.95664 3.26317,8.82052 0.67711,19.06808 -6.6541,26.78905 -3.00189,3.32244 -3.95036,3.63931 -58.61331,22.42898 -30.44557,10.48794 -55.67437,19.5493 -56.02185,20.08712 -0.41043,0.98059 10.39548,33.95577 11.34437,34.27135 1.36019,0.5999 11.60364,-2.82236 59.24794,-19.26714 z"
         id="path1016"
         style="fill:#ffffff;fill-opacity:1;stroke-width:0.0999997" /></clipPath><clipPath
       clipPathUnits="userSpaceOnUse"
       id="clipPath1018"><path
         d="m -544.28768,-544.97503 c 1.39037,-1.51884 3.15234,-14.54864 5.25574,-36.97062 0.2826,-2.94112 0.91116,-8.63365 1.28796,-12.55514 0.47164,-3.95316 1.03683,-9.83539 1.41406,-13.12442 0.5335,-5.97706 1.41404,-13.12444 3.0495,-26.21734 1.79323,-13.5674 -0.48439,-14.70426 -17.74649,-8.93712 -6.54442,2.18644 -13.02527,4.87876 -14.35269,5.95484 -2.43366,1.86746 -2.65441,2.78462 -4.66512,22.01267 -0.84801,8.50711 -2.01072,19.22803 -2.79664,26.02746 -1.54017,13.69372 -1.97882,19.6391 -1.50351,21.0618 0.28519,0.85362 3.70313,4.77251 7.53214,8.6595 3.8607,3.98183 8.67073,8.9117 10.53793,11.02915 4.99993,5.18272 9.14323,6.22344 11.98712,3.05922 z"
         id="path1018"
         style="fill:#ffffff;fill-opacity:1;stroke-width:0.0999997" /></clipPath><clipPath
       clipPathUnits="userSpaceOnUse"
       id="clipPath1019"><path
         d="m -553.37236,-465.50076 c 0.78938,-1.7398 1.73547,-5.53518 2.04975,-8.38145 0.34598,-2.75141 0.9116,-8.00118 1.38346,-11.63813 1.06938,-8.47563 -0.0395,-11.47904 -6.27372,-18.14719 -2.81651,-3.06548 -7.02535,-7.45817 -9.20898,-9.89164 -20.25348,-21.80587 -42.18295,-43.57899 -43.92231,-43.73592 -0.94869,6.5e-4 -1.2557,-1.28755 -2.89842,-1.72509 -1.71609,-0.45708 -7.34481,1.48684 -10.89913,2.97574 -4.90615,1.50071 -8.87341,2.52796 -13.17298,4.17528 l -7.20814,2.72449 0.76115,3.225 c 0.57103,2.65592 4.81177,7.45969 19.71631,22.40708 18.44881,18.61321 26.2019,26.67173 40.4423,41.52471 15.28479,16.08555 18.19595,18.80311 21.07433,19.8447 4.08035,1.48349 6.38814,0.5016 8.15638,-3.35758 z"
         id="path1019"
         sodipodi:nodetypes="ccccccscccccccc"
         style="fill:#ffffff;fill-opacity:1;stroke-width:0.0999997" /></clipPath><clipPath
       clipPathUnits="userSpaceOnUse"
       id="clipPath1020"><path
         d="m -563.54997,-412.01968 c 1.83161,-3.6695 1.83118,-4.30196 -0.57707,-11.5103 -2.34489,-7.01866 -2.97799,-7.96691 -9.68668,-14.79285 -3.95556,-3.95014 -8.03742,-7.64722 -8.98654,-8.27903 -0.91742,-0.53696 -24.65049,-23.9216 -52.68745,-51.98348 -28.03696,-28.06187 -52.4346,-52.17338 -54.07998,-53.6269 -3.6072,-3.22306 -7.34116,-6.82553 -12.15118,-11.75535 -1.93036,-1.99097 -5.79083,-5.65653 -8.54376,-8.21609 -2.84778,-2.52787 -6.26529,-5.81431 -7.78413,-7.20468 -5.34788,-5.27739 -6.929,-5.27626 -23.33747,0.20569 -20.77143,6.93958 -20.6143,5.5164 -3.08335,22.96022 7.72117,7.64742 18.13235,18.2972 23.16398,23.57477 18.41755,19.15082 25.60091,26.45078 35.63226,36.59484 5.60114,5.71989 10.79078,10.83924 11.51851,11.43958 0.72774,0.60033 3.92386,3.85529 7.11999,7.11026 3.19612,3.25496 6.39225,6.50992 7.11998,7.11026 0.72774,0.60033 4.99973,4.86649 9.49331,9.48035 4.58844,4.58216 11.70842,11.69242 16.01188,15.7372 4.20862,4.07647 14.65105,14.18862 22.97343,22.37323 8.44892,8.24778 16.54972,16.08469 18.13171,17.34852 4.30325,3.72855 8.35105,3.85227 18.78419,0.36664 8.82074,-2.94695 9.07359,-3.13685 10.96837,-6.93288 z"
         id="path1020"
         style="fill:#ffffff;fill-opacity:1;stroke-width:0.0999997" /></clipPath><clipPath
       clipPathUnits="userSpaceOnUse"
       id="clipPath1021"><path
         d="m -758.99669,-345.66802 c 11.79053,-6.99669 21.99861,-15.88968 30.52963,-26.33102 5.24501,-6.39138 13.33132,-19.74173 15.50934,-25.53019 1.1679,-3.13145 2.30433,-6.04152 2.49381,-6.42113 1.92646,-3.70117 6.61982,-30.67862 5.70088,-33.42917 -0.19012,-0.56908 -0.22311,-2.5613 -0.0347,-4.52204 0.75252,-9.4241 -0.99311,-18.75163 -6.53822,-35.03357 -6.78094,-19.98097 -10.92812,-26.71379 -26.3082,-43.40011 -4.77855,-5.15125 -15.28285,-13.2395 -23.38148,-17.91416 -15.18498,-8.84401 -34.85749,-13.44747 -52.21768,-12.39205 -14.13475,0.92671 -52.20147,11.32502 -53.90677,14.74145 -0.50528,1.01223 0.7631,6.07105 4.18536,16.3145 3.42226,10.24344 5.4494,15.04869 6.46167,15.55397 1.01227,0.50527 5.88136,-0.69972 15.36603,-3.86848 25.32407,-8.46059 40.78732,-8.88225 57.20445,-1.7151 7.18054,3.18899 21.54424,13.36172 22.36812,15.82773 0.22181,0.66393 1.36127,2.18105 2.62704,3.44509 1.23409,1.1692 3.67122,4.36144 5.50716,7.0165 4.33666,6.35321 12.09991,29.27442 11.94601,35.44097 -0.0617,2.34013 0.0349,4.83826 0.25674,5.50219 0.60207,1.80209 -0.21468,9.77159 -2.10384,21.78954 -0.28346,1.6762 -2.96718,7.84448 -5.93565,13.79158 -4.4843,8.98394 -6.79058,12.17942 -13.04765,18.38176 -4.20301,4.14546 -8.37475,7.7533 -9.13352,8.0068 -0.85362,0.28519 -3.76174,1.99481 -6.54334,3.76759 -4.07755,2.62747 -13.08777,5.95402 -50.07798,18.31219 -24.75499,8.27046 -45.49451,15.62112 -46.03168,16.22232 -0.63181,0.94911 0.41453,5.02773 4.69192,17.19958 l 5.63974,15.93404 48.87774,-16.22427 c 43.66117,-14.48145 49.57314,-16.66746 55.89509,-20.46651 z"
         id="path1021"
         style="fill:#ffffff;fill-opacity:1;stroke-width:0.0999997" /></clipPath><clipPath
       clipPathUnits="userSpaceOnUse"
       id="clipPath1022"><path
         d="m -783.66238,-438.11619 c 0.0925,-3.51019 -8.81067,-28.58098 -10.74058,-29.93944 -1.67685,-1.23214 -4.36425,-0.43973 -39.33121,11.03161 l -37.40129,12.39006 -13.56164,-39.6457 c -9.25256,-27.37901 -13.97294,-39.93005 -14.95373,-40.65668 -1.83485,-1.0739 -28.96122,7.67253 -31.39448,10.17236 -1.39037,1.51882 -0.91484,3.25775 17.1471,57.32039 14.06929,42.11194 19.01191,55.95934 20.15072,56.52777 1.13881,0.56843 14.79694,-3.67835 55.77072,-17.36739 48.56151,-16.22405 54.18894,-18.315 54.31439,-19.83298 z"
         id="path1022"
         style="fill:#ffffff;fill-opacity:1;stroke-width:0.0999997" /></clipPath><clipPath
       clipPathUnits="userSpaceOnUse"
       id="clipPath1023"><path
         d="m -896.14353,-297.63416 c 1.29555,-1.48716 -0.60595,-7.49418 -32.48367,-102.90996 -28.70895,-85.93109 -34.09537,-101.42261 -35.77223,-102.65478 -1.89825,-1.2636 -3.82689,-0.72467 -65.09807,19.42929 -56.9714,18.82284 -63.2944,21.04079 -64.147,22.90713 -0.9158,1.67659 -0.3134,4.11112 4.4389,17.07322 3.073,8.2515 5.9239,15.20653 6.3351,15.49085 0.4745,0.1578 22.0366,-6.62423 47.9931,-15.08524 32.3113,-10.58408 47.61347,-15.27471 48.6889,-14.89597 2.21425,0.94718 46.44996,133.03692 45.3131,135.31454 -0.56844,1.13881 -6.44871,3.41967 -20.77061,8.20451 -10.90735,3.64406 -34.90337,11.97726 -53.27169,18.53573 -30.6351,10.86754 -33.5119,12.03954 -34.5856,14.19063 -1.0106,2.02454 -0.5982,3.89001 3.1409,15.08193 4.1511,12.42491 4.436,12.96231 7.4412,14.38328 l 3.0685,1.61067 49.22542,-16.44587 c 27.03131,-9.03096 58.20445,-19.23481 69.23855,-22.49949 13.75299,-4.27848 20.36054,-6.59144 21.2452,-7.73047 z"
         id="path1023"
         style="fill:#ffffff;fill-opacity:1;stroke-width:0.0999997" /></clipPath><clipPath
       clipPathUnits="userSpaceOnUse"
       id="clipPath1024"><path
         d="m -1005.7864,-353.78456 21.18203,-7.60394 -5.2291,-16.59839 c -3.58111,-11.35013 -5.73522,-16.85103 -6.7792,-17.45114 -1.23387,-0.85297 -8.69533,1.42896 -41.60713,12.42457 -34.9035,11.66102 -40.1516,13.62523 -40.783,15.2068 -0.9469,2.53046 10.0782,32.37484 12.4826,33.89109 1.6134,1.04245 14.1649,-3.04547 60.7338,-19.86899 z"
         id="path1024"
         style="fill:#ffffff;fill-opacity:1;stroke-width:0.0999997" /></clipPath><clipPath
       clipPathUnits="userSpaceOnUse"
       id="clipPath1025"><path
         d="m -1118.8525,-421.44327 c 4.6137,-4.80988 5.5274,-9.64876 3.2142,-16.57255 -1.8062,-5.40626 -2.3442,-6.06999 -6.1719,-8.05959 -8.4147,-4.35822 -18.437,-1.22074 -22.89,7.22559 -5.0847,9.71173 0.836,20.17479 12.6008,21.93764 5.2183,0.787 9.5813,-0.67063 13.2469,-4.53109 z"
         id="path1025"
         style="fill:#ffffff;fill-opacity:1;stroke-width:0.0999997" /></clipPath><clipPath
       clipPathUnits="userSpaceOnUse"
       id="clipPath1026"><path
         d="m -1196.0819,-292.21144 c 10.6224,-4.18147 12.1397,-5.00471 17.1644,-9.84643 6.2571,-6.20233 10.4575,-14.14253 10.9589,-20.84691 0.188,-2.59319 0.4068,-6.35645 0.5951,-8.31718 0.1884,-1.96075 0.029,-4.33235 -0.2565,-5.18597 -0.3168,-0.94847 -0.3177,-2.21337 0,-2.84605 0.5999,-1.36018 0.1821,-11.13134 -0.6446,-17.70833 -0.3177,-2.21337 -0.3513,-5.15426 -0.1625,-6.48255 0.2836,-1.35996 0.1241,-3.41534 -0.2561,-4.5535 -0.3486,-1.04332 -0.667,-4.20537 -0.7321,-6.9249 -0.033,-2.62467 -0.3531,-7.68409 -0.5768,-11.19407 -1.4027,-16.50611 -1.5629,-19.51019 -1.5017,-22.48275 -0.033,-1.67604 -0.2248,-5.09117 -0.5111,-7.52591 -0.2545,-2.33987 -0.383,-5.24913 -0.1308,-6.3877 0.1256,-1.20176 -0.3824,-4.30043 -1.238,-6.86129 -1.3626,-4.07839 -2.0588,-4.90016 -6.0762,-6.82637 -3.8277,-1.9896 -5.4406,-2.08337 -10.3731,-1.06806 -3.1618,0.63456 -7.9041,2.21894 -10.5279,3.51733 -6.2276,3.13488 -9.5461,5.82508 -28.2546,23.67314 -6.0045,5.69615 -8.6591,8.16454 -19.6568,18.48109 -2.4334,2.18369 -6.8261,6.39246 -9.8916,9.20902 -2.9706,2.78485 -5.5621,5.12667 -5.7518,5.19003 -0.2845,0.0951 -3.4449,2.94329 -7.1107,6.48754 -3.6975,3.4494 -9.2279,8.67096 -12.2617,11.58234 -5.7833,5.41145 -12.3249,11.70885 -30.2748,28.98715 -5.6568,5.47462 -10.8083,9.93695 -11.5672,9.87422 -0.7273,0.0321 -1.9614,-1.13709 -2.753,-2.55957 -0.7598,-1.32764 -2.8807,-4.5201 -4.6216,-6.89062 -4.8113,-6.82723 -9.2112,-13.0539 -12.3767,-17.79513 -1.5195,-2.33905 -4.3683,-6.44806 -6.1726,-9.00827 -1.8042,-2.56022 -4.305,-6.25842 -5.666,-8.12322 -3.7669,-5.59468 -8.481,-8.97506 -13.2566,-9.69915 -5.5661,-0.8816 -6.7043,-0.50135 -10.4016,3.26429 -5.3406,5.47435 -5.0827,12.55769 0.8364,20.80717 1.5509,2.11773 4.4946,6.19506 6.3939,9.03981 1.8994,2.84475 4.1468,6.10031 5.0647,7.26974 1.361,1.86482 3.4819,5.05728 13.1999,19.31251 1.646,2.40219 4.3683,6.44806 5.9828,9.07166 1.7095,2.59189 4.7485,7.26998 6.8377,10.36759 11.4278,17.47958 21.1116,28.16147 29.0516,32.04565 2.8469,1.26296 7.8128,2.87233 11.0072,3.59748 l 5.9775,1.16595 44.1354,-14.63989 c 24.2807,-8.11202 49.3517,-16.69891 55.8011,-19.16989 z m -98.563,7.62518 c -6.0409,-1.35565 -12.4637,-6.37929 -14.6808,-11.43741 -1.837,-4.2362 -1.3315,-4.93224 11.3732,-16.13539 4.3929,-3.8926 9.7338,-8.73454 12.0093,-10.75996 4.1715,-3.92407 11.1557,-10.47477 18.8667,-17.69002 26.2934,-24.49401 36.7854,-34.43074 52.0171,-49.74659 13.0513,-13.00586 16.5598,-15.44322 16.7204,-11.80667 0.419,11.6685 0.9636,21.81904 1.6972,30.95751 0.2871,3.69967 0.5115,8.15834 0.4494,9.86601 0.064,1.77084 0.1931,4.99627 0.5109,7.20964 0.3178,2.21337 0.4782,5.53365 0.5109,7.20965 -0.03,1.80251 -0.027,6.54593 0.1336,10.49868 0.2915,10.02421 -0.7792,16.60249 -3.1486,19.92451 -1.8639,2.62594 -3.6975,3.4494 -24.3105,10.86321 -12.235,4.40392 -32.4056,11.24823 -44.7042,15.14623 l -22.3841,7.16206 z"
         id="path1026"
         style="fill:#ffffff;fill-opacity:1;stroke-width:0.0999997" /></clipPath><clipPath
       clipPathUnits="userSpaceOnUse"
       id="clipPath1027"><path
         d="m -1370.1359,-202.85303 c 0.6952,-0.75942 0.6622,-2.75164 -0.1616,-5.21765 -0.7289,-2.18147 -9.9187,-30.31946 -20.4394,-62.44102 -18.8231,-57.2876 -26.8583,-80.07601 -28.9149,-81.8138 -0.7278,-0.60036 -5.7039,1.23094 -14.2403,3.76661 -13.3738,3.83548 -13.4687,3.86719 -14.2257,6.6505 -0.7573,2.4671 1.3028,9.26462 23.1039,74.51915 19.9313,59.34233 24.3671,71.98843 25.9806,73.03088 1.6768,1.23214 3.2578,0.91482 14.829,-2.95105 7.1135,-2.37657 13.4364,-4.91072 14.0684,-5.54362 z"
         id="path1027"
         sodipodi:nodetypes="csccccccsc"
         style="fill:#ffffff;fill-opacity:1;stroke:#00ffff;stroke-width:0.999998;stroke-dasharray:none;stroke-opacity:0.92549" /></clipPath><clipPath
       clipPathUnits="userSpaceOnUse"
       id="clipPath1028"><path
         d="m -1357.9842,-144.07457 c 2.0232,-0.88682 3.9195,-2.46926 4.2351,-3.41815 0.7892,-2.05603 -7.5115,-24.69226 -9.8214,-26.87266 -1.2658,-1.26406 -2.9416,-0.91505 -13.3747,2.57059 -10.2435,3.42226 -12.077,4.24569 -12.6133,6.11181 -0.4734,1.42335 0.4781,5.53365 3.2351,14.10156 3.961,11.85584 4.0244,12.04553 7.1241,13.11858 2.657,1.01012 4.3645,0.75596 10.3713,-1.46173 3.9519,-1.42573 8.8206,-3.26319 10.8438,-4.15 z"
         id="path1028"
         style="fill:#ffffff;fill-opacity:1;stroke-width:0.0999997" /></clipPath><clipPath
       clipPathUnits="userSpaceOnUse"
       id="clipPath1029"><path
         d="m -1173.814,-8.6758582 c 3.1037,-1.8673788 14.8387,-7.7035548 26.1539,-13.0164988 12.9505,-6.064891 20.5061,-9.979353 20.2555,-10.524485 -0.2089,-0.454273 1.0923,-1.933098 2.9658,-3.12474 1.8317,-1.282495 3.2164,-2.579608 3.0075,-3.033887 -0.1671,-0.36342 0.5127,-1.996802 1.5904,-3.482917 4.0873,-5.951818 4.0873,-5.951818 -19.5457,-56.391171 -19.1974,-41.032193 -21.7603,-46.127413 -24.8433,-49.002333 -5.5519,-5.37186 -8.686,-6.68237 -13.4575,-5.80916 -14.0493,2.71789 -36.6882,9.4954 -38.8143,11.57368 -0.5107,0.565 -1.8589,0.74469 -2.8709,0.21942 -1.5425,-0.72156 -5.0785,0.68421 -25.0668,9.8751 -12.7688,5.98136 -32.1847,15.45939 -43.2001,21.18481 -11.0154,5.72543 -22.2125,11.534418 -24.9382,12.787718 -3.7741,1.845472 -4.7882,2.752015 -4.3286,3.75142 0.3759,0.817699 -0.3801,2.045865 -1.8902,3.070411 -1.4191,0.982748 -3.1329,2.76132 -3.7981,3.94772 -1.7084,2.986839 -2.7545,11.722713 -1.7518,13.903244 0.4595,0.999412 0.7771,3.605019 0.7949,5.79812 -0.026,3.534027 1.3872,6.846589 19.1463,42.596593 22.3691,45.297147 24.8287,49.449315 31.3277,51.854185 7.2948,2.699318 12.9257,1.540966 33.9259,-7.124642 30.3855,-12.4307487 59.4446,-25.3523002 65.3376,-29.0525872 z m -10.2205,-47.3611768 c -2.5001,-0.171189 -6.8352,-1.69993 -9.5985,-3.401048 -4.2986,-2.646193 -5.2887,-3.841897 -7.5447,-8.748092 -3.1332,-6.814158 -3.1449,-13.302601 0.063,-19.730599 2.9207,-5.855684 11.0361,-10.46775 18.3694,-10.317639 16.3219,0.309574 27.1554,19.322318 18.6645,32.692165 -3.5349,5.477647 -13.082,10.087705 -19.9538,9.505213 z m -75.9969,34.834396 c -5.1966,0.188167 -10.3692,-1.725906 -14.4151,-5.258714 -8.2662,-7.205594 -8.8567,-19.261357 -1.3712,-27.87634 4.0926,-4.743512 9.1732,-6.859503 15.8778,-6.640438 7.8221,0.25555 11.9807,3.076167 16.3693,11.184204 3.0371,5.647626 3.4403,7.003161 2.9527,10.969561 -0.8696,7.444035 -4.1027,11.902411 -11.1477,15.251842 -2.5021,1.260595 -6.2962,2.344751 -8.2658,2.369885 z"
         id="path1029"
         style="fill:#ffffff;fill-opacity:0;stroke:#ffffff;stroke-width:3.5;stroke-dasharray:none;stroke-opacity:0.92549" /></clipPath></defs><sodipodi:namedview
     id="namedview52"
     pagecolor="#002a47"
     bordercolor="#000000"
     borderopacity="0.25"
     inkscape:showpageshadow="2"
     inkscape:pageopacity="0.0"
     inkscape:pagecheckerboard="0"
     inkscape:deskcolor="#d1d1d1"
     inkscape:document-units="pt"
     inkscape:zoom="0.43166667"
     inkscape:cx="195.7529"
     inkscape:cy="858.30116"
     inkscape:window-width="1920"
     inkscape:window-height="991"
     inkscape:window-x="-9"
     inkscape:window-y="-9"
     inkscape:window-maximized="1"
     inkscape:current-layer="g1038" /><metadata
     id="metadata1">
Created by potrace 1.10, written by Peter Selinger 2001-2011
</metadata><g
     inkscape:groupmode="layer"
     id="layer2"
     inkscape:label="Background"><g
       id="g1035"
       transform="matrix(0.28648208,-0.07676264,0.07676264,0.28648208,-5.8138548,530.99869)"
       style="stroke-width:3.37168"><text
         xml:space="preserve"
         transform="matrix(2.4425944,0.65449118,-0.65449118,2.4425944,482.31313,-1724.2791)"
         id="text1036"
         style="font-size:120px;white-space:pre;shape-inside:url(#rect1036);display:inline;fill:#ffffff;fill-opacity:1;fill-rule:evenodd;stroke:#d7eef4;stroke-width:1.33333;stroke-dasharray:none;stroke-opacity:1" /><g
         id="g1038"
         transform="translate(590.31944,157.228)"><path
           d="m 109.8787,271.98931 c -8.13183,15.53875 -14.135958,32.2539 -16.544468,46.1036 -0.225894,1.3 -0.463038,2.61949 -0.522327,2.94936 -0.112888,0.55901 -0.491528,3.12317 -0.613204,4.19724 -0.181242,1.76788 -0.556815,7.87081 -0.575089,9.8108 -0.02489,3.31457 0.428586,10.02619 0.918478,13.03979 2.869076,18.06706 11.10939,35.28209 23.61476,49.28998 14.91318,16.6984 35.53536,28.18851 59.03055,32.88498 3.06447,0.59895 9.83454,1.77689 10.98449,1.92066 0.27273,0.0274 3.01684,0.36339 6.12365,0.75272 3.07587,0.39746 6.46667,0.79471 7.4873,0.88983 4.32431,0.41606 12.78745,1.11509 15.0256,1.23695 14.11771,0.7648 21.08532,0.96449 33.598,1.01068 4.16433,0.0116 13.83153,-0.10263 17.08772,-0.19922 1.97395,-0.0567 4.111,-0.12321 4.75212,-0.14317 1.18942,-0.0155 7.03258,-0.23093 9.70112,-0.35473 0.80421,-0.0298 2.31141,-0.0959 3.36025,-0.14053 2.34235,-0.10406 15.84822,-0.91485 17.53262,-1.06066 0.69457,-0.0671 2.41833,-0.19024 3.83556,-0.28225 2.72199,-0.17095 6.69256,-0.50527 10.19638,-0.849 19.81646,-1.9267 26.41644,-2.7715 33.57659,-4.35919 12.71436,-2.8022 21.30261,-7.90858 26.96309,-16.03169 1.77894,-2.53593 3.68552,-6.61062 4.43834,-9.50489 0.25939,-0.99458 0.55262,-2.04761 0.65125,-2.35477 0.11817,-0.29588 0.16644,-0.78816 0.1526,-1.08223 -0.0335,-0.30542 0.0174,-0.66617 0.0962,-0.8027 0.14639,-0.25357 0.50683,-4.83082 0.44573,-5.90638 -0.0607,-1.6215 -0.26945,-4.57681 -0.34785,-4.98618 -0.0364,-0.25508 -0.20153,-1.28668 -0.34704,-2.30694 -0.6492,-4.32793 -3.30587,-12.85771 -5.81821,-18.72946 -0.35933,-0.83163 -0.91513,-2.14079 -1.21824,-2.88796 -2.71998,-6.51176 -7.01803,-16.01521 -11.2659,-24.96953 -0.36216,-0.78125 -1.08934,-2.29339 -1.5975,-3.36701 -1.12299,-2.41685 -9.31051,-18.76916 -10.88859,-21.76087 -0.63179,-1.22299 -1.51067,-2.92675 -1.95994,-3.7843 -1.67634,-3.23046 -5.6274,-10.42698 -10.16831,-18.51021 -3.46256,-6.13427 -8.29304,-14.30664 -11.28419,-19.07644 -0.69094,-1.07511 -1.29477,-2.07391 -1.3481,-2.20872 -0.22742,-0.4694 -2.73836,-4.38979 -6.56389,-10.21346 -8.49083,-12.96445 -16.42937,-23.65948 -24.15823,-32.67301 -3.40228,-3.96687 -8.65371,-9.36545 -11.03953,-11.36707 -0.53393,-0.4383 -1.61862,-1.37664 -2.44197,-2.08607 -9.6218,-8.23389 -21.27764,-14.9894 -32.94387,-19.04613 -3.60669,-1.2501 -4.27577,-1.45433 -6.66819,-2.08139 -8.56603,-2.29285 -17.81888,-3.57785 -25.98445,-3.61095 -12.45081,-0.0625 -25.80617,2.5777 -37.11886,7.35948 -1.75793,0.72755 -3.21776,1.39312 -3.26281,1.47115 -0.045,0.078 -0.46417,0.30417 -0.94232,0.49626 -1.37259,0.5599 -5.81434,3.11889 -8.67252,4.97969 -2.65845,1.74207 -7.65771,5.35757 -7.84915,5.68916 -0.0563,0.0975 -0.37707,0.38047 -0.72591,0.62119 -1.75833,1.27347 -7.66989,6.65088 -9.98302,9.11247 -0.62467,0.62761 -1.48857,1.53324 -1.96129,1.98851 -1.53634,1.47966 -5.91237,6.46927 -8.54662,9.75971 -8.23766,10.22418 -18.20571,25.89911 -26.21082,41.17292 z"
           id="path1-5"
           style="fill:#ffffff;fill-opacity:1;stroke:none;stroke-width:0.337168"
           inkscape:transform-center-y="-21.379841"
           inkscape:transform-center-x="67.632278" /><g
           id="g1037"><ellipse
             style="fill:none;fill-opacity:1;fill-rule:evenodd;stroke:#ffffff;stroke-width:33.7168;stroke-dasharray:none;stroke-opacity:1"
             id="path1033"
             cx="445.34274"
             cy="453.09979"
             inkscape:label="path1033"
             rx="309.75"
             ry="309.75003"
             inkscape:transform-center-x="0.66930205"
             inkscape:transform-center-y="0.91253812" /><path
             d="m 431.00604,70.687197 c -17.52287,0.726989 -35.00068,3.884839 -48.19913,8.723858 -1.23878,0.45437 -2.50006,0.90874 -2.81538,1.02233 -0.54056,0.181739 -2.95051,1.135909 -3.94152,1.567569 -1.62165,0.72698 -7.09473,3.453189 -8.78395,4.407359 -2.88294,1.63573 -8.46864,5.384259 -10.83355,7.315319 -14.21199,11.518218 -25.00049,27.262058 -30.87898,45.095988 -7.00464,21.26441 -6.64427,44.86881 1.03606,67.56447 1.01353,2.95339 3.37844,9.40541 3.82891,10.47318 0.11261,0.2499 1.19371,2.79436 2.40995,5.67959 1.19372,2.86252 2.54509,5.99766 2.97303,6.92911 1.80184,3.953 5.42803,11.63181 6.44157,13.63103 6.39652,12.6087 9.70739,18.74267 15.92373,29.60206 2.07212,3.61222 7.00464,11.92714 8.71639,14.69879 1.03605,1.68116 2.1622,3.49863 2.50005,4.04387 0.60812,1.02233 3.71628,5.97493 5.15776,8.22405 0.42793,0.68156 1.23876,1.95379 1.80183,2.8398 1.26129,1.97651 8.71639,13.26754 9.68487,14.65336 0.40541,0.56796 1.37391,1.99922 2.16221,3.18057 1.50904,2.27184 3.78386,5.54329 5.83345,8.40583 11.5768,16.1982 15.60841,21.49155 20.56346,26.89858 8.78396,9.60986 17.50034,14.49431 27.3654,15.33488 3.08565,0.27264 7.56772,-0.11356 10.45065,-0.90873 0.99102,-0.27265 2.04959,-0.54523 2.36491,-0.61339 0.31533,-0.0456 0.76579,-0.24994 1.01354,-0.40896 0.24775,-0.18172 0.5856,-0.31804 0.74326,-0.31804 0.29279,0 4.43702,-1.97648 5.33794,-2.56717 1.3739,-0.86333 3.82891,-2.52176 4.14423,-2.79434 0.2027,-0.15908 1.01353,-0.81787 1.82435,-1.45402 3.4235,-2.72618 9.48217,-9.29182 13.31108,-14.40344 0.54055,-0.72701 1.39642,-1.86292 1.89193,-2.49901 4.27936,-5.61145 10.36056,-14.0854 15.9913,-22.24132 0.4955,-0.70427 1.44146,-2.09009 2.11716,-3.06698 1.53156,-2.18096 11.59932,-17.44772 13.40117,-20.31023 0.74325,-1.15864 1.77931,-2.77165 2.29733,-3.58951 1.9595,-3.06698 6.21634,-10.08696 10.94616,-18.06112 3.58116,-6.0658 8.2434,-14.3353 10.87859,-19.31062 0.5856,-1.13592 1.14867,-2.15825 1.23876,-2.27184 0.2928,-0.43165 2.43249,-4.56639 5.56317,-10.79123 6.98212,-13.8355 12.27502,-26.05799 16.21654,-37.25815 1.73427,-4.92989 3.78386,-12.17705 4.32441,-15.24404 0.11261,-0.68155 0.38289,-2.09009 0.5856,-3.15785 2.31986,-12.44967 2.34238,-25.92167 0.0225,-38.05329 -0.72073,-3.74853 -0.8784,-4.43009 -1.53156,-6.81552 -2.29735,-8.56482 -5.81093,-17.22053 -9.86505,-24.30867 -6.17131,-10.81394 -15.13544,-21.059939 -24.93293,-28.466128 -1.50904,-1.15864 -2.81536,-2.090099 -2.90546,-2.090099 -0.0901,0 -0.4955,-0.2499 -0.90093,-0.56795 -1.17118,-0.90874 -5.60821,-3.47592 -8.6488,-5.020769 -2.8379,-1.43125 -8.46864,-3.952989 -8.85153,-3.952989 -0.11262,0 -0.51803,-0.13631 -0.90092,-0.31806 -1.98202,-0.88602 -9.59478,-3.31688 -12.88314,-4.08931 -0.85586,-0.22718 -2.07211,-0.522519 -2.70275,-0.704269 -2.04959,-0.59068 -8.55873,-1.88563 -12.72547,-2.52174 -12.97323,-2.02194 -31.53215,-2.817079 -48.76222,-2.112809 z"
             id="path1"
             style="fill:#ffffff;fill-opacity:1;stroke:none;stroke-width:0.337168"
             inkscape:transform-center-y="-66.56918"
             inkscape:transform-center-x="22.594882" /><path
             d="m 123.64727,650.74482 c 9.39101,14.81175 20.86469,28.36905 31.65463,37.37974 1.01289,0.84563 2.03702,1.71074 2.29305,1.92702 0.42768,0.37727 2.45899,1.98727 3.32832,2.62967 1.44041,1.0409 6.53792,4.41763 8.20886,5.40345 2.85805,1.67883 8.89723,4.64193 11.75203,5.72447 17.08106,6.54883 36.10988,8.02003 54.49376,4.19398 21.91784,-4.566 42.17967,-16.68029 57.99452,-34.67948 2.05094,-2.35444 6.4561,-7.62852 7.15558,-8.55253 0.16012,-0.22247 1.82314,-2.43096 3.7137,-4.92687 1.88215,-2.46505 3.92158,-5.20294 4.51427,-6.03928 2.52248,-3.53693 7.35943,-10.51671 8.58403,-12.39407 7.7212,-11.8439 11.37793,-17.77819 17.67427,-28.59139 2.09222,-3.60062 6.82689,-12.02976 8.37133,-14.89801 0.93791,-1.73782 1.94881,-3.62183 2.25207,-4.18704 0.58131,-1.03781 3.3163,-6.20586 4.54336,-8.57878 0.37628,-0.71138 1.07265,-2.04969 1.55842,-2.98033 1.08107,-2.08056 7.13183,-14.18238 7.84775,-15.71402 0.28916,-0.63508 1.04442,-2.18945 1.67335,-3.46281 1.21295,-2.44279 2.9087,-6.04857 4.36294,-9.25484 8.23965,-18.1249 10.80802,-24.26305 13.01312,-31.25776 3.9304,-12.41207 3.80227,-22.4029 -0.4023,-31.36658 -1.30672,-2.80857 -3.88221,-6.49705 -6.01231,-8.59616 -0.73163,-0.72192 -1.49698,-1.50238 -1.71367,-1.74138 -0.19716,-0.25028 -0.59935,-0.53822 -0.86094,-0.67327 -0.28125,-0.1237 -0.56823,-0.34812 -0.64706,-0.48466 -0.14639,-0.25356 -3.93019,-2.85433 -4.8922,-3.33921 -1.43462,-0.75816 -4.09837,-2.05505 -4.49209,-2.19183 -0.23912,-0.096 -1.21506,-0.46881 -2.17139,-0.85293 -4.07269,-1.60175 -12.78804,-3.56589 -19.12929,-4.32601 -0.89988,-0.10463 -2.31154,-0.27788 -3.11017,-0.38896 -6.99934,-0.90031 -17.37859,-1.9298 -27.2572,-2.72821 -0.85766,-0.077 -2.5308,-0.20329 -3.71466,-0.30002 -2.65455,-0.23589 -20.90983,-1.32145 -24.28976,-1.45064 -1.37504,-0.0643 -3.28997,-0.1551 -4.25727,-0.19479 -3.63583,-0.16349 -11.84373,-0.34003 -21.11447,-0.4491 -7.04372,-0.0685 -16.53643,0.0287 -22.16278,0.23418 -1.27654,0.0608 -2.44344,0.0843 -2.58685,0.0631 -0.52022,-0.0377 -5.17086,0.1766 -12.12707,0.57777 -15.47295,0.87106 -28.70439,2.39852 -40.37477,4.58514 -5.13655,0.96302 -12.43757,2.81161 -15.36393,3.87697 -0.64655,0.24325 -2.00152,0.71345 -3.02758,1.07178 -11.94166,4.21578 -23.62001,10.93228 -32.96635,19.00716 -2.88595,2.49844 -3.39737,2.97576 -5.13663,4.73413 -6.26866,6.27197 -12.00793,13.64268 -16.11937,20.69772 -6.279484,10.75148 -10.67072,23.63765 -12.185924,35.82562 -0.248891,1.88618 -0.402399,3.48322 -0.357349,3.56125 0.04505,0.078 0.03133,0.55406 -0.04139,1.0642 -0.201402,1.46864 -0.20613,6.59481 -0.02371,10.00047 0.179451,3.17331 0.81093,9.31055 1.002375,9.64214 0.05631,0.0975 0.140967,0.51678 0.175012,0.93925 0.223694,2.15949 1.924888,9.96776 2.90012,13.20178 0.23119,0.85479 0.58354,2.05576 0.74146,2.69279 0.513252,2.07033 2.646364,8.35489 4.178846,12.28145 4.73556,12.24611 13.32639,28.71618 22.55133,43.28572 z"
             id="path1-88"
             style="fill:#ffffff;fill-opacity:1;stroke:none;stroke-width:0.337168"
             inkscape:transform-center-y="53.27526"
             inkscape:transform-center-x="54.336352" /><path
             d="m 458.54344,828.19862 c 17.52287,-0.72699 35.00068,-3.88484 48.19913,-8.72386 1.23878,-0.45437 2.50006,-0.90874 2.81538,-1.02233 0.54056,-0.18174 2.95051,-1.13591 3.94152,-1.56757 1.62165,-0.72698 7.09473,-3.45319 8.78395,-4.40736 2.88294,-1.63573 8.46864,-5.38426 10.83355,-7.31532 14.21199,-11.51822 25.00049,-27.26206 30.87898,-45.09599 7.00464,-21.26441 6.64427,-44.86881 -1.03606,-67.56447 -1.01353,-2.95339 -3.37844,-9.40541 -3.82891,-10.47318 -0.11261,-0.2499 -1.19371,-2.79436 -2.40995,-5.67959 -1.19372,-2.86252 -2.54509,-5.99766 -2.97303,-6.92911 -1.80184,-3.953 -5.42803,-11.63181 -6.44157,-13.63103 -6.39652,-12.6087 -9.70739,-18.74267 -15.92373,-29.60206 -2.07212,-3.61222 -7.00464,-11.92714 -8.71639,-14.69879 -1.03605,-1.68116 -2.1622,-3.49863 -2.50005,-4.04387 -0.60812,-1.02233 -3.71628,-5.97493 -5.15776,-8.22405 -0.42793,-0.68156 -1.23876,-1.95379 -1.80183,-2.8398 -1.26129,-1.97651 -8.71639,-13.26754 -9.68487,-14.65336 -0.40541,-0.56796 -1.37391,-1.99922 -2.16221,-3.18057 -1.50904,-2.27184 -3.78386,-5.54329 -5.83345,-8.40583 -11.5768,-16.1982 -15.60841,-21.49155 -20.56346,-26.89858 -8.78396,-9.60986 -17.50034,-14.49431 -27.3654,-15.33488 -3.08565,-0.27264 -7.56772,0.11356 -10.45065,0.90873 -0.99102,0.27265 -2.04959,0.54523 -2.36491,0.61339 -0.31533,0.0456 -0.76579,0.24994 -1.01354,0.40896 -0.24775,0.18172 -0.5856,0.31804 -0.74326,0.31804 -0.29279,0 -4.43702,1.97648 -5.33794,2.56717 -1.3739,0.86333 -3.82891,2.52176 -4.14423,2.79434 -0.2027,0.15908 -1.01353,0.81787 -1.82435,1.45402 -3.4235,2.72618 -9.48217,9.29182 -13.31108,14.40344 -0.54055,0.72701 -1.39642,1.86292 -1.89193,2.49901 -4.27936,5.61145 -10.36056,14.0854 -15.9913,22.24132 -0.4955,0.70427 -1.44146,2.09009 -2.11716,3.06698 -1.53156,2.18096 -11.59932,17.44772 -13.40117,20.31023 -0.74325,1.15864 -1.77931,2.77165 -2.29733,3.58951 -1.9595,3.06698 -6.21634,10.08696 -10.94616,18.06112 -3.58116,6.0658 -8.2434,14.3353 -10.87859,19.31062 -0.5856,1.13592 -1.14867,2.15825 -1.23876,2.27184 -0.2928,0.43165 -2.43249,4.56639 -5.56317,10.79123 -6.98212,13.8355 -12.27502,26.05799 -16.21654,37.25815 -1.73427,4.92989 -3.78386,12.17705 -4.32441,15.24404 -0.11261,0.68155 -0.38289,2.09009 -0.5856,3.15785 -2.31986,12.44967 -2.34238,25.92167 -0.0225,38.05329 0.72073,3.74853 0.8784,4.43009 1.53156,6.81552 2.29735,8.56482 5.81093,17.22053 9.86505,24.30867 6.17131,10.81394 15.13544,21.05994 24.93293,28.46613 1.50904,1.15864 2.81536,2.0901 2.90546,2.0901 0.0901,0 0.4955,0.2499 0.90093,0.56795 1.17118,0.90874 5.60821,3.47592 8.6488,5.02077 2.8379,1.43125 8.46864,3.95299 8.85153,3.95299 0.11262,0 0.51803,0.13631 0.90092,0.31806 1.98202,0.88602 9.59478,3.31688 12.88314,4.08931 0.85586,0.22718 2.07211,0.52252 2.70275,0.70427 2.04959,0.59068 8.55873,1.88563 12.72547,2.52174 12.97323,2.02194 31.53215,2.81708 48.76222,2.11281 z"
             id="path1-50"
             style="fill:#ffffff;fill-opacity:1;stroke:none;stroke-width:0.337168"
             inkscape:transform-center-y="66.386194"
             inkscape:transform-center-x="-20.369407" /><path
             d="m 779.67103,626.89691 c 8.13184,-15.53874 14.13597,-32.25389 16.54448,-46.1036 0.22589,-1.3 0.46304,-2.61948 0.52232,-2.94935 0.11289,-0.55901 0.49153,-3.12317 0.61321,-4.19724 0.18124,-1.76788 0.55681,-7.87082 0.57509,-9.81081 0.0249,-3.31456 -0.42859,-10.02618 -0.91848,-13.03979 -2.86908,-18.06705 -11.10939,-35.28209 -23.61478,-49.28997 -14.9132,-16.6984 -35.5354,-28.18851 -59.03058,-32.88498 -3.06448,-0.59896 -9.83454,-1.77689 -10.9845,-1.92066 -0.27272,-0.0274 -3.01684,-0.3634 -6.12364,-0.75272 -3.07587,-0.39747 -6.46667,-0.79471 -7.4873,-0.88983 -4.32432,-0.41606 -12.78746,-1.1151 -15.0256,-1.23695 -14.11772,-0.76481 -21.08533,-0.96449 -33.598,-1.01068 -4.16434,-0.0116 -13.83153,0.10263 -17.08772,0.19922 -1.97396,0.0567 -4.11101,0.12321 -4.75212,0.14317 -1.18943,0.0155 -7.03258,0.23093 -9.70112,0.35473 -0.80421,0.0298 -2.31141,0.0959 -3.36025,0.14053 -2.34236,0.10405 -15.84823,0.91484 -17.53262,1.06066 -0.69457,0.0671 -2.41833,0.19023 -3.83556,0.28225 -2.72199,0.17094 -6.69256,0.50527 -10.19639,0.849 -19.81645,1.9267 -26.41643,2.7715 -33.57658,4.35919 -12.71436,2.8022 -21.30261,7.90858 -26.9631,16.03169 -1.77894,2.53593 -3.68551,6.61061 -4.43834,9.50489 -0.25939,0.99457 -0.55261,2.04761 -0.65124,2.35477 -0.11818,0.29588 -0.16644,0.78816 -0.1526,1.08223 0.0335,0.30542 -0.0174,0.66616 -0.0962,0.8027 -0.1464,0.25356 -0.50683,4.83081 -0.44574,5.90638 0.0607,1.62149 0.26946,4.57681 0.34786,4.98618 0.0364,0.25508 0.20153,1.28667 0.34704,2.30694 0.64919,4.32793 3.30587,12.85771 5.81821,18.72945 0.35933,0.83164 0.91512,2.1408 1.21824,2.88797 2.71997,6.51176 7.01803,16.01521 11.26589,24.96953 0.36217,0.78125 1.08935,2.29339 1.59751,3.367 1.12298,2.41685 9.31051,18.76917 10.88859,21.76087 0.63178,1.223 1.51066,2.92676 1.95994,3.7843 1.67633,3.23047 5.62739,10.42699 10.16831,18.51022 3.46255,6.13427 8.29303,14.30664 11.28419,19.07644 0.69094,1.07511 1.29476,2.0739 1.34809,2.20872 0.22742,0.4694 2.73837,4.38979 6.5639,10.21346 8.49083,12.96444 16.42937,23.65947 24.15823,32.67301 3.40228,3.96687 8.6537,9.36545 11.03952,11.36707 0.53394,0.4383 1.61863,1.37664 2.44198,2.08607 9.6218,8.23389 21.27763,14.9894 32.94387,19.04613 3.60668,1.25009 4.27577,1.45433 6.66819,2.08139 8.56603,2.29285 17.81888,3.57785 25.98445,3.61095 12.4508,0.0625 25.80616,-2.5777 37.11886,-7.35948 1.75793,-0.72755 3.21776,-1.39313 3.26281,-1.47116 0.0451,-0.078 0.46417,-0.30416 0.94232,-0.49625 1.37258,-0.5599 5.81434,-3.11889 8.67251,-4.9797 2.65845,-1.74206 7.65771,-5.35756 7.84916,-5.68915 0.0563,-0.0975 0.37706,-0.38047 0.72591,-0.62119 1.75832,-1.27347 7.66989,-6.65088 9.98301,-9.11247 0.62468,-0.62761 1.48857,-1.53324 1.96129,-1.98852 1.53634,-1.47965 5.91237,-6.46926 8.54663,-9.75971 8.23767,-10.22417 18.20574,-25.8991 26.21086,-41.17291 z"
             id="path1-0"
             style="fill:#ffffff;fill-opacity:1;stroke:none;stroke-width:0.337168"
             inkscape:transform-center-y="21.196959"
             inkscape:transform-center-x="-65.406903" /><path
             d="m 765.90243,248.14141 c -9.39102,-14.81175 -20.86471,-28.36906 -31.65464,-37.37974 -1.01289,-0.84563 -2.03703,-1.71075 -2.29306,-1.92703 -0.42767,-0.37726 -2.45898,-1.98726 -3.32831,-2.62967 -1.44041,-1.0409 -6.53792,-4.41762 -8.20886,-5.40344 -2.85806,-1.67884 -8.89723,-4.64193 -11.75203,-5.72447 -17.08107,-6.54884 -36.10988,-8.02003 -54.49377,-4.19399 -21.91783,4.56601 -42.17966,16.6803 -57.99451,34.67949 -2.05095,2.35444 -6.45611,7.62852 -7.15559,8.55253 -0.16011,0.22247 -1.82313,2.43096 -3.71369,4.92687 -1.88216,2.46505 -3.92158,5.20294 -4.51427,6.03927 -2.52248,3.53694 -7.35943,10.51672 -8.58404,12.39408 -7.72119,11.8439 -11.37793,17.77818 -17.67427,28.59139 -2.09221,3.60061 -6.82688,12.02976 -8.37133,14.89801 -0.9379,1.73782 -1.9488,3.62183 -2.25207,4.18704 -0.5813,1.03781 -3.3163,6.20586 -4.54335,8.57877 -0.37629,0.71138 -1.07265,2.0497 -1.55843,2.98033 -1.08106,2.08057 -7.13183,14.18239 -7.84774,15.71403 -0.28917,0.63507 -1.04442,2.18945 -1.67335,3.46281 -1.21295,2.44279 -2.9087,6.04857 -4.36294,9.25483 -8.23965,18.12491 -10.80802,24.26306 -13.01312,31.25777 -3.93041,12.41206 -3.80227,22.4029 0.4023,31.36657 1.30671,2.80857 3.88221,6.49706 6.01231,8.59617 0.73163,0.72192 1.49698,1.50238 1.71366,1.74137 0.19716,0.25029 0.59935,0.53823 0.86094,0.67328 0.28125,0.12369 0.56824,0.34812 0.64707,0.48466 0.14639,0.25356 3.93019,2.85433 4.8922,3.3392 1.43462,0.75817 4.09836,2.05506 4.49208,2.19184 0.23912,0.096 1.21507,0.46881 2.1714,0.85293 4.07269,1.60174 12.78803,3.56589 19.12928,4.32601 0.89989,0.10462 2.31155,0.27787 3.11017,0.38895 6.99934,0.90031 17.3786,1.92981 27.2572,2.72822 0.85767,0.077 2.5308,0.20329 3.71466,0.30002 2.65455,0.23589 20.90983,1.32145 24.28976,1.45064 1.37504,0.0643 3.28998,0.1551 4.25728,0.19479 3.63583,0.16349 11.84373,0.34003 21.11447,0.44909 7.04371,0.0685 16.53643,-0.0286 22.16278,-0.23417 1.27653,-0.0608 2.44343,-0.0843 2.58685,-0.0631 0.52022,0.0377 5.17085,-0.1766 12.12706,-0.57777 15.47296,-0.87106 28.70439,-2.39852 40.37478,-4.58514 5.13654,-0.96303 12.43756,-2.81161 15.36393,-3.87697 0.64654,-0.24326 2.00151,-0.71346 3.02758,-1.07178 11.94166,-4.21578 23.62001,-10.93228 32.96636,-19.00716 2.88596,-2.49844 3.39737,-2.97577 5.13664,-4.73413 6.26867,-6.27198 12.00795,-13.64268 16.1194,-20.69772 6.27949,-10.75148 10.67072,-23.63765 12.18592,-35.82562 0.2489,-1.88618 0.4024,-3.48322 0.35735,-3.56125 -0.0451,-0.078 -0.0313,-0.55407 0.0414,-1.0642 0.2014,-1.46865 0.20613,-6.59482 0.0237,-10.00047 -0.17945,-3.17332 -0.81093,-9.31055 -1.00237,-9.64214 -0.0563,-0.0975 -0.14097,-0.51679 -0.17502,-0.93925 -0.22369,-2.15949 -1.92488,-9.96777 -2.90012,-13.20178 -0.23119,-0.85479 -0.58354,-2.05576 -0.74146,-2.69279 -0.51325,-2.07034 -2.64636,-8.35489 -4.17884,-12.28145 -4.73557,-12.24612 -13.32641,-28.71618 -22.55137,-43.28573 z"
             id="path1-8"
             style="fill:#ffffff;fill-opacity:1;stroke:none;stroke-width:0.337168"
             inkscape:transform-center-y="-53.458143"
             inkscape:transform-center-x="-52.110977" /><text
             xml:space="preserve"
             style="font-size:624.556px;fill:#ffffff;fill-opacity:1;fill-rule:evenodd;stroke:#d7eef4;stroke-width:3.37166;stroke-dasharray:none;stroke-opacity:1"
             x="1066.5232"
             y="545.55634"
             id="text1037"
             transform="matrix(0.96309835,0.25806142,-0.25957889,0.96876161,0,0)"><tspan
               sodipodi:role="line"
               id="tspan1037"
               style="font-style:normal;font-variant:normal;font-weight:normal;font-stretch:normal;font-family:'Century Gothic';-inkscape-font-specification:'Century Gothic';stroke-width:3.37169"
               x="1066.5232"
               y="545.55634">SAGE.ai</tspan></text></g><g
           id="g1045"><g
             id="g1044"><g
               id="g1043"><ellipse
                 style="stroke-width:33.7168;fill:none;fill-opacity:1;fill-rule:evenodd;stroke:#ffffff;stroke-dasharray:none;stroke-opacity:1"
                 id="ellipse1038"
                 cx="445.34274"
                 cy="453.09979"
                 inkscape:label="path1033"
                 rx="309.75"
                 ry="309.75003"
                 inkscape:transform-center-x="0.66930205"
                 inkscape:transform-center-y="0.91253812"
                 transform="translate(-1.7868154e-6)" /><path
                 d="m 431.00604,70.687197 c -17.52287,0.726989 -35.00068,3.884839 -48.19913,8.723858 -1.23878,0.45437 -2.50006,0.90874 -2.81538,1.02233 -0.54056,0.181739 -2.95051,1.135909 -3.94152,1.567569 -1.62165,0.72698 -7.09473,3.453189 -8.78395,4.407359 -2.88294,1.63573 -8.46864,5.384259 -10.83355,7.315319 -14.21199,11.518218 -25.00049,27.262058 -30.87898,45.095988 -7.00464,21.26441 -6.64427,44.86881 1.03606,67.56447 1.01353,2.95339 3.37844,9.40541 3.82891,10.47318 0.11261,0.2499 1.19371,2.79436 2.40995,5.67959 1.19372,2.86252 2.54509,5.99766 2.97303,6.92911 1.80184,3.953 5.42803,11.63181 6.44157,13.63103 6.39652,12.6087 9.70739,18.74267 15.92373,29.60206 2.07212,3.61222 7.00464,11.92714 8.71639,14.69879 1.03605,1.68116 2.1622,3.49863 2.50005,4.04387 0.60812,1.02233 3.71628,5.97493 5.15776,8.22405 0.42793,0.68156 1.23876,1.95379 1.80183,2.8398 1.26129,1.97651 8.71639,13.26754 9.68487,14.65336 0.40541,0.56796 1.37391,1.99922 2.16221,3.18057 1.50904,2.27184 3.78386,5.54329 5.83345,8.40583 11.5768,16.1982 15.60841,21.49155 20.56346,26.89858 8.78396,9.60986 17.50034,14.49431 27.3654,15.33488 3.08565,0.27264 7.56772,-0.11356 10.45065,-0.90873 0.99102,-0.27265 2.04959,-0.54523 2.36491,-0.61339 0.31533,-0.0456 0.76579,-0.24994 1.01354,-0.40896 0.24775,-0.18172 0.5856,-0.31804 0.74326,-0.31804 0.29279,0 4.43702,-1.97648 5.33794,-2.56717 1.3739,-0.86333 3.82891,-2.52176 4.14423,-2.79434 0.2027,-0.15908 1.01353,-0.81787 1.82435,-1.45402 3.4235,-2.72618 9.48217,-9.29182 13.31108,-14.40344 0.54055,-0.72701 1.39642,-1.86292 1.89193,-2.49901 4.27936,-5.61145 10.36056,-14.0854 15.9913,-22.24132 0.4955,-0.70427 1.44146,-2.09009 2.11716,-3.06698 1.53156,-2.18096 11.59932,-17.44772 13.40117,-20.31023 0.74325,-1.15864 1.77931,-2.77165 2.29733,-3.58951 1.9595,-3.06698 6.21634,-10.08696 10.94616,-18.06112 3.58116,-6.0658 8.2434,-14.3353 10.87859,-19.31062 0.5856,-1.13592 1.14867,-2.15825 1.23876,-2.27184 0.2928,-0.43165 2.43249,-4.56639 5.56317,-10.79123 6.98212,-13.8355 12.27502,-26.05799 16.21654,-37.25815 1.73427,-4.92989 3.78386,-12.17705 4.32441,-15.24404 0.11261,-0.68155 0.38289,-2.09009 0.5856,-3.15785 2.31986,-12.44967 2.34238,-25.92167 0.0225,-38.05329 -0.72073,-3.74853 -0.8784,-4.43009 -1.53156,-6.81552 -2.29735,-8.56482 -5.81093,-17.22053 -9.86505,-24.30867 -6.17131,-10.81394 -15.13544,-21.059939 -24.93293,-28.466128 -1.50904,-1.15864 -2.81536,-2.090099 -2.90546,-2.090099 -0.0901,0 -0.4955,-0.2499 -0.90093,-0.56795 -1.17118,-0.90874 -5.60821,-3.47592 -8.6488,-5.020769 -2.8379,-1.43125 -8.46864,-3.952989 -8.85153,-3.952989 -0.11262,0 -0.51803,-0.13631 -0.90092,-0.31806 -1.98202,-0.88602 -9.59478,-3.31688 -12.88314,-4.08931 -0.85586,-0.22718 -2.07211,-0.522519 -2.70275,-0.704269 -2.04959,-0.59068 -8.55873,-1.88563 -12.72547,-2.52174 -12.97323,-2.02194 -31.53215,-2.817079 -48.76222,-2.112809 z"
                 id="path1039"
                 style="stroke-width:0.337168;fill:#ffffff;fill-opacity:1;stroke:none"
                 inkscape:transform-center-y="-66.56918"
                 inkscape:transform-center-x="22.594882"
                 transform="translate(-1.7868154e-6)" /><path
                 d="m 123.64727,650.74482 c 9.39101,14.81175 20.86469,28.36905 31.65463,37.37974 1.01289,0.84563 2.03702,1.71074 2.29305,1.92702 0.42768,0.37727 2.45899,1.98727 3.32832,2.62967 1.44041,1.0409 6.53792,4.41763 8.20886,5.40345 2.85805,1.67883 8.89723,4.64193 11.75203,5.72447 17.08106,6.54883 36.10988,8.02003 54.49376,4.19398 21.91784,-4.566 42.17967,-16.68029 57.99452,-34.67948 2.05094,-2.35444 6.4561,-7.62852 7.15558,-8.55253 0.16012,-0.22247 1.82314,-2.43096 3.7137,-4.92687 1.88215,-2.46505 3.92158,-5.20294 4.51427,-6.03928 2.52248,-3.53693 7.35943,-10.51671 8.58403,-12.39407 7.7212,-11.8439 11.37793,-17.77819 17.67427,-28.59139 2.09222,-3.60062 6.82689,-12.02976 8.37133,-14.89801 0.93791,-1.73782 1.94881,-3.62183 2.25207,-4.18704 0.58131,-1.03781 3.3163,-6.20586 4.54336,-8.57878 0.37628,-0.71138 1.07265,-2.04969 1.55842,-2.98033 1.08107,-2.08056 7.13183,-14.18238 7.84775,-15.71402 0.28916,-0.63508 1.04442,-2.18945 1.67335,-3.46281 1.21295,-2.44279 2.9087,-6.04857 4.36294,-9.25484 8.23965,-18.1249 10.80802,-24.26305 13.01312,-31.25776 3.9304,-12.41207 3.80227,-22.4029 -0.4023,-31.36658 -1.30672,-2.80857 -3.88221,-6.49705 -6.01231,-8.59616 -0.73163,-0.72192 -1.49698,-1.50238 -1.71367,-1.74138 -0.19716,-0.25028 -0.59935,-0.53822 -0.86094,-0.67327 -0.28125,-0.1237 -0.56823,-0.34812 -0.64706,-0.48466 -0.14639,-0.25356 -3.93019,-2.85433 -4.8922,-3.33921 -1.43462,-0.75816 -4.09837,-2.05505 -4.49209,-2.19183 -0.23912,-0.096 -1.21506,-0.46881 -2.17139,-0.85293 -4.07269,-1.60175 -12.78804,-3.56589 -19.12929,-4.32601 -0.89988,-0.10463 -2.31154,-0.27788 -3.11017,-0.38896 -6.99934,-0.90031 -17.37859,-1.9298 -27.2572,-2.72821 -0.85766,-0.077 -2.5308,-0.20329 -3.71466,-0.30002 -2.65455,-0.23589 -20.90983,-1.32145 -24.28976,-1.45064 -1.37504,-0.0643 -3.28997,-0.1551 -4.25727,-0.19479 -3.63583,-0.16349 -11.84373,-0.34003 -21.11447,-0.4491 -7.04372,-0.0685 -16.53643,0.0287 -22.16278,0.23418 -1.27654,0.0608 -2.44344,0.0843 -2.58685,0.0631 -0.52022,-0.0377 -5.17086,0.1766 -12.12707,0.57777 -15.47295,0.87106 -28.70439,2.39852 -40.37477,4.58514 -5.13655,0.96302 -12.43757,2.81161 -15.36393,3.87697 -0.64655,0.24325 -2.00152,0.71345 -3.02758,1.07178 -11.94166,4.21578 -23.62001,10.93228 -32.96635,19.00716 -2.88595,2.49844 -3.39737,2.97576 -5.13663,4.73413 -6.26866,6.27197 -12.00793,13.64268 -16.11937,20.69772 -6.279484,10.75148 -10.67072,23.63765 -12.185924,35.82562 -0.248891,1.88618 -0.402399,3.48322 -0.357349,3.56125 0.04505,0.078 0.03133,0.55406 -0.04139,1.0642 -0.201402,1.46864 -0.20613,6.59481 -0.02371,10.00047 0.179451,3.17331 0.81093,9.31055 1.002375,9.64214 0.05631,0.0975 0.140967,0.51678 0.175012,0.93925 0.223694,2.15949 1.924888,9.96776 2.90012,13.20178 0.23119,0.85479 0.58354,2.05576 0.74146,2.69279 0.513252,2.07033 2.646364,8.35489 4.178846,12.28145 4.73556,12.24611 13.32639,28.71618 22.55133,43.28572 z"
                 id="path1040"
                 style="stroke-width:0.337168;fill:#ffffff;fill-opacity:1;stroke:none"
                 inkscape:transform-center-y="53.27526"
                 inkscape:transform-center-x="54.336352"
                 transform="translate(-1.7868154e-6)" /><path
                 d="m 458.54344,828.19862 c 17.52287,-0.72699 35.00068,-3.88484 48.19913,-8.72386 1.23878,-0.45437 2.50006,-0.90874 2.81538,-1.02233 0.54056,-0.18174 2.95051,-1.13591 3.94152,-1.56757 1.62165,-0.72698 7.09473,-3.45319 8.78395,-4.40736 2.88294,-1.63573 8.46864,-5.38426 10.83355,-7.31532 14.21199,-11.51822 25.00049,-27.26206 30.87898,-45.09599 7.00464,-21.26441 6.64427,-44.86881 -1.03606,-67.56447 -1.01353,-2.95339 -3.37844,-9.40541 -3.82891,-10.47318 -0.11261,-0.2499 -1.19371,-2.79436 -2.40995,-5.67959 -1.19372,-2.86252 -2.54509,-5.99766 -2.97303,-6.92911 -1.80184,-3.953 -5.42803,-11.63181 -6.44157,-13.63103 -6.39652,-12.6087 -9.70739,-18.74267 -15.92373,-29.60206 -2.07212,-3.61222 -7.00464,-11.92714 -8.71639,-14.69879 -1.03605,-1.68116 -2.1622,-3.49863 -2.50005,-4.04387 -0.60812,-1.02233 -3.71628,-5.97493 -5.15776,-8.22405 -0.42793,-0.68156 -1.23876,-1.95379 -1.80183,-2.8398 -1.26129,-1.97651 -8.71639,-13.26754 -9.68487,-14.65336 -0.40541,-0.56796 -1.37391,-1.99922 -2.16221,-3.18057 -1.50904,-2.27184 -3.78386,-5.54329 -5.83345,-8.40583 -11.5768,-16.1982 -15.60841,-21.49155 -20.56346,-26.89858 -8.78396,-9.60986 -17.50034,-14.49431 -27.3654,-15.33488 -3.08565,-0.27264 -7.56772,0.11356 -10.45065,0.90873 -0.99102,0.27265 -2.04959,0.54523 -2.36491,0.61339 -0.31533,0.0456 -0.76579,0.24994 -1.01354,0.40896 -0.24775,0.18172 -0.5856,0.31804 -0.74326,0.31804 -0.29279,0 -4.43702,1.97648 -5.33794,2.56717 -1.3739,0.86333 -3.82891,2.52176 -4.14423,2.79434 -0.2027,0.15908 -1.01353,0.81787 -1.82435,1.45402 -3.4235,2.72618 -9.48217,9.29182 -13.31108,14.40344 -0.54055,0.72701 -1.39642,1.86292 -1.89193,2.49901 -4.27936,5.61145 -10.36056,14.0854 -15.9913,22.24132 -0.4955,0.70427 -1.44146,2.09009 -2.11716,3.06698 -1.53156,2.18096 -11.59932,17.44772 -13.40117,20.31023 -0.74325,1.15864 -1.77931,2.77165 -2.29733,3.58951 -1.9595,3.06698 -6.21634,10.08696 -10.94616,18.06112 -3.58116,6.0658 -8.2434,14.3353 -10.87859,19.31062 -0.5856,1.13592 -1.14867,2.15825 -1.23876,2.27184 -0.2928,0.43165 -2.43249,4.56639 -5.56317,10.79123 -6.98212,13.8355 -12.27502,26.05799 -16.21654,37.25815 -1.73427,4.92989 -3.78386,12.17705 -4.32441,15.24404 -0.11261,0.68155 -0.38289,2.09009 -0.5856,3.15785 -2.31986,12.44967 -2.34238,25.92167 -0.0225,38.05329 0.72073,3.74853 0.8784,4.43009 1.53156,6.81552 2.29735,8.56482 5.81093,17.22053 9.86505,24.30867 6.17131,10.81394 15.13544,21.05994 24.93293,28.46613 1.50904,1.15864 2.81536,2.0901 2.90546,2.0901 0.0901,0 0.4955,0.2499 0.90093,0.56795 1.17118,0.90874 5.60821,3.47592 8.6488,5.02077 2.8379,1.43125 8.46864,3.95299 8.85153,3.95299 0.11262,0 0.51803,0.13631 0.90092,0.31806 1.98202,0.88602 9.59478,3.31688 12.88314,4.08931 0.85586,0.22718 2.07211,0.52252 2.70275,0.70427 2.04959,0.59068 8.55873,1.88563 12.72547,2.52174 12.97323,2.02194 31.53215,2.81708 48.76222,2.11281 z"
                 id="path1041"
                 style="stroke-width:0.337168;fill:#ffffff;fill-opacity:1;stroke:none"
                 inkscape:transform-center-y="66.386194"
                 inkscape:transform-center-x="-20.369407"
                 transform="translate(-1.7868154e-6)" /><path
                 d="m 779.67103,626.89691 c 8.13184,-15.53874 14.13597,-32.25389 16.54448,-46.1036 0.22589,-1.3 0.46304,-2.61948 0.52232,-2.94935 0.11289,-0.55901 0.49153,-3.12317 0.61321,-4.19724 0.18124,-1.76788 0.55681,-7.87082 0.57509,-9.81081 0.0249,-3.31456 -0.42859,-10.02618 -0.91848,-13.03979 -2.86908,-18.06705 -11.10939,-35.28209 -23.61478,-49.28997 -14.9132,-16.6984 -35.5354,-28.18851 -59.03058,-32.88498 -3.06448,-0.59896 -9.83454,-1.77689 -10.9845,-1.92066 -0.27272,-0.0274 -3.01684,-0.3634 -6.12364,-0.75272 -3.07587,-0.39747 -6.46667,-0.79471 -7.4873,-0.88983 -4.32432,-0.41606 -12.78746,-1.1151 -15.0256,-1.23695 -14.11772,-0.76481 -21.08533,-0.96449 -33.598,-1.01068 -4.16434,-0.0116 -13.83153,0.10263 -17.08772,0.19922 -1.97396,0.0567 -4.11101,0.12321 -4.75212,0.14317 -1.18943,0.0155 -7.03258,0.23093 -9.70112,0.35473 -0.80421,0.0298 -2.31141,0.0959 -3.36025,0.14053 -2.34236,0.10405 -15.84823,0.91484 -17.53262,1.06066 -0.69457,0.0671 -2.41833,0.19023 -3.83556,0.28225 -2.72199,0.17094 -6.69256,0.50527 -10.19639,0.849 -19.81645,1.9267 -26.41643,2.7715 -33.57658,4.35919 -12.71436,2.8022 -21.30261,7.90858 -26.9631,16.03169 -1.77894,2.53593 -3.68551,6.61061 -4.43834,9.50489 -0.25939,0.99457 -0.55261,2.04761 -0.65124,2.35477 -0.11818,0.29588 -0.16644,0.78816 -0.1526,1.08223 0.0335,0.30542 -0.0174,0.66616 -0.0962,0.8027 -0.1464,0.25356 -0.50683,4.83081 -0.44574,5.90638 0.0607,1.62149 0.26946,4.57681 0.34786,4.98618 0.0364,0.25508 0.20153,1.28667 0.34704,2.30694 0.64919,4.32793 3.30587,12.85771 5.81821,18.72945 0.35933,0.83164 0.91512,2.1408 1.21824,2.88797 2.71997,6.51176 7.01803,16.01521 11.26589,24.96953 0.36217,0.78125 1.08935,2.29339 1.59751,3.367 1.12298,2.41685 9.31051,18.76917 10.88859,21.76087 0.63178,1.223 1.51066,2.92676 1.95994,3.7843 1.67633,3.23047 5.62739,10.42699 10.16831,18.51022 3.46255,6.13427 8.29303,14.30664 11.28419,19.07644 0.69094,1.07511 1.29476,2.0739 1.34809,2.20872 0.22742,0.4694 2.73837,4.38979 6.5639,10.21346 8.49083,12.96444 16.42937,23.65947 24.15823,32.67301 3.40228,3.96687 8.6537,9.36545 11.03952,11.36707 0.53394,0.4383 1.61863,1.37664 2.44198,2.08607 9.6218,8.23389 21.27763,14.9894 32.94387,19.04613 3.60668,1.25009 4.27577,1.45433 6.66819,2.08139 8.56603,2.29285 17.81888,3.57785 25.98445,3.61095 12.4508,0.0625 25.80616,-2.5777 37.11886,-7.35948 1.75793,-0.72755 3.21776,-1.39313 3.26281,-1.47116 0.0451,-0.078 0.46417,-0.30416 0.94232,-0.49625 1.37258,-0.5599 5.81434,-3.11889 8.67251,-4.9797 2.65845,-1.74206 7.65771,-5.35756 7.84916,-5.68915 0.0563,-0.0975 0.37706,-0.38047 0.72591,-0.62119 1.75832,-1.27347 7.66989,-6.65088 9.98301,-9.11247 0.62468,-0.62761 1.48857,-1.53324 1.96129,-1.98852 1.53634,-1.47965 5.91237,-6.46926 8.54663,-9.75971 8.23767,-10.22417 18.20574,-25.8991 26.21086,-41.17291 z"
                 id="path1042"
                 style="stroke-width:0.337168;fill:#ffffff;fill-opacity:1;stroke:none"
                 inkscape:transform-center-y="21.196959"
                 inkscape:transform-center-x="-65.406903"
                 transform="translate(-1.7868154e-6)" /><path
                 d="m 765.90243,248.14141 c -9.39102,-14.81175 -20.86471,-28.36906 -31.65464,-37.37974 -1.01289,-0.84563 -2.03703,-1.71075 -2.29306,-1.92703 -0.42767,-0.37726 -2.45898,-1.98726 -3.32831,-2.62967 -1.44041,-1.0409 -6.53792,-4.41762 -8.20886,-5.40344 -2.85806,-1.67884 -8.89723,-4.64193 -11.75203,-5.72447 -17.08107,-6.54884 -36.10988,-8.02003 -54.49377,-4.19399 -21.91783,4.56601 -42.17966,16.6803 -57.99451,34.67949 -2.05095,2.35444 -6.45611,7.62852 -7.15559,8.55253 -0.16011,0.22247 -1.82313,2.43096 -3.71369,4.92687 -1.88216,2.46505 -3.92158,5.20294 -4.51427,6.03927 -2.52248,3.53694 -7.35943,10.51672 -8.58404,12.39408 -7.72119,11.8439 -11.37793,17.77818 -17.67427,28.59139 -2.09221,3.60061 -6.82688,12.02976 -8.37133,14.89801 -0.9379,1.73782 -1.9488,3.62183 -2.25207,4.18704 -0.5813,1.03781 -3.3163,6.20586 -4.54335,8.57877 -0.37629,0.71138 -1.07265,2.0497 -1.55843,2.98033 -1.08106,2.08057 -7.13183,14.18239 -7.84774,15.71403 -0.28917,0.63507 -1.04442,2.18945 -1.67335,3.46281 -1.21295,2.44279 -2.9087,6.04857 -4.36294,9.25483 -8.23965,18.12491 -10.80802,24.26306 -13.01312,31.25777 -3.93041,12.41206 -3.80227,22.4029 0.4023,31.36657 1.30671,2.80857 3.88221,6.49706 6.01231,8.59617 0.73163,0.72192 1.49698,1.50238 1.71366,1.74137 0.19716,0.25029 0.59935,0.53823 0.86094,0.67328 0.28125,0.12369 0.56824,0.34812 0.64707,0.48466 0.14639,0.25356 3.93019,2.85433 4.8922,3.3392 1.43462,0.75817 4.09836,2.05506 4.49208,2.19184 0.23912,0.096 1.21507,0.46881 2.1714,0.85293 4.07269,1.60174 12.78803,3.56589 19.12928,4.32601 0.89989,0.10462 2.31155,0.27787 3.11017,0.38895 6.99934,0.90031 17.3786,1.92981 27.2572,2.72822 0.85767,0.077 2.5308,0.20329 3.71466,0.30002 2.65455,0.23589 20.90983,1.32145 24.28976,1.45064 1.37504,0.0643 3.28998,0.1551 4.25728,0.19479 3.63583,0.16349 11.84373,0.34003 21.11447,0.44909 7.04371,0.0685 16.53643,-0.0286 22.16278,-0.23417 1.27653,-0.0608 2.44343,-0.0843 2.58685,-0.0631 0.52022,0.0377 5.17085,-0.1766 12.12706,-0.57777 15.47296,-0.87106 28.70439,-2.39852 40.37478,-4.58514 5.13654,-0.96303 12.43756,-2.81161 15.36393,-3.87697 0.64654,-0.24326 2.00151,-0.71346 3.02758,-1.07178 11.94166,-4.21578 23.62001,-10.93228 32.96636,-19.00716 2.88596,-2.49844 3.39737,-2.97577 5.13664,-4.73413 6.26867,-6.27198 12.00795,-13.64268 16.1194,-20.69772 6.27949,-10.75148 10.67072,-23.63765 12.18592,-35.82562 0.2489,-1.88618 0.4024,-3.48322 0.35735,-3.56125 -0.0451,-0.078 -0.0313,-0.55407 0.0414,-1.0642 0.2014,-1.46865 0.20613,-6.59482 0.0237,-10.00047 -0.17945,-3.17332 -0.81093,-9.31055 -1.00237,-9.64214 -0.0563,-0.0975 -0.14097,-0.51679 -0.17502,-0.93925 -0.22369,-2.15949 -1.92488,-9.96777 -2.90012,-13.20178 -0.23119,-0.85479 -0.58354,-2.05576 -0.74146,-2.69279 -0.51325,-2.07034 -2.64636,-8.35489 -4.17884,-12.28145 -4.73557,-12.24612 -13.32641,-28.71618 -22.55137,-43.28573 z"
                 id="path1043"
                 style="stroke-width:0.337168;fill:#ffffff;fill-opacity:1;stroke:none"
                 inkscape:transform-center-y="-53.458143"
                 inkscape:transform-center-x="-52.110977"
                 transform="translate(-1.7868154e-6)" /><text
                 xml:space="preserve"
                 style="stroke-width:3.37166;font-size:624.556px;fill:#ffffff;fill-opacity:1;fill-rule:evenodd;stroke:#d7eef4;stroke-dasharray:none;stroke-opacity:1"
                 x="1066.5232"
                 y="545.55634"
                 id="text1043"
                 transform="matrix(0.96309834,0.25806142,-0.25957889,0.96876162,-1.7868154e-6,5.3976189e-6)"><tspan
                   sodipodi:role="line"
                   id="tspan1043"
                   style="font-style:normal;font-variant:normal;font-weight:normal;font-stretch:normal;font-family:'Century Gothic';-inkscape-font-specification:'Century Gothic';stroke-width:3.37169"
                   x="1066.5232"
                   y="545.55634">SAGE.ai</tspan></text><path
                 d="m 109.8787,271.98931 c -8.13183,15.53875 -14.135958,32.2539 -16.544468,46.1036 -0.225894,1.3 -0.463038,2.61949 -0.522327,2.94936 -0.112888,0.55901 -0.491528,3.12317 -0.613204,4.19724 -0.181242,1.76788 -0.556815,7.87081 -0.575089,9.8108 -0.02489,3.31457 0.428586,10.02619 0.918478,13.03979 2.869076,18.06706 11.10939,35.28209 23.61476,49.28998 14.91318,16.6984 35.53536,28.18851 59.03055,32.88498 3.06447,0.59895 9.83454,1.77689 10.98449,1.92066 0.27273,0.0274 3.01684,0.36339 6.12365,0.75272 3.07587,0.39746 6.46667,0.79471 7.4873,0.88983 4.32431,0.41606 12.78745,1.11509 15.0256,1.23695 14.11771,0.7648 21.08532,0.96449 33.598,1.01068 4.16433,0.0116 13.83153,-0.10263 17.08772,-0.19922 1.97395,-0.0567 4.111,-0.12321 4.75212,-0.14317 1.18942,-0.0155 7.03258,-0.23093 9.70112,-0.35473 0.80421,-0.0298 2.31141,-0.0959 3.36025,-0.14053 2.34235,-0.10406 15.84822,-0.91485 17.53262,-1.06066 0.69457,-0.0671 2.41833,-0.19024 3.83556,-0.28225 2.72199,-0.17095 6.69256,-0.50527 10.19638,-0.849 19.81646,-1.9267 26.41644,-2.7715 33.57659,-4.35919 12.71436,-2.8022 21.30261,-7.90858 26.96309,-16.03169 1.77894,-2.53593 3.68552,-6.61062 4.43834,-9.50489 0.25939,-0.99458 0.55262,-2.04761 0.65125,-2.35477 0.11817,-0.29588 0.16644,-0.78816 0.1526,-1.08223 -0.0335,-0.30542 0.0174,-0.66617 0.0962,-0.8027 0.14639,-0.25357 0.50683,-4.83082 0.44573,-5.90638 -0.0607,-1.6215 -0.26945,-4.57681 -0.34785,-4.98618 -0.0364,-0.25508 -0.20153,-1.28668 -0.34704,-2.30694 -0.6492,-4.32793 -3.30587,-12.85771 -5.81821,-18.72946 -0.35933,-0.83163 -0.91513,-2.14079 -1.21824,-2.88796 -2.71998,-6.51176 -7.01803,-16.01521 -11.2659,-24.96953 -0.36216,-0.78125 -1.08934,-2.29339 -1.5975,-3.36701 -1.12299,-2.41685 -9.31051,-18.76916 -10.88859,-21.76087 -0.63179,-1.22299 -1.51067,-2.92675 -1.95994,-3.7843 -1.67634,-3.23046 -5.6274,-10.42698 -10.16831,-18.51021 -3.46256,-6.13427 -8.29304,-14.30664 -11.28419,-19.07644 -0.69094,-1.07511 -1.29477,-2.07391 -1.3481,-2.20872 -0.22742,-0.4694 -2.73836,-4.38979 -6.56389,-10.21346 -8.49083,-12.96445 -16.42937,-23.65948 -24.15823,-32.67301 -3.40228,-3.96687 -8.65371,-9.36545 -11.03953,-11.36707 -0.53393,-0.4383 -1.61862,-1.37664 -2.44197,-2.08607 -9.6218,-8.23389 -21.27764,-14.9894 -32.94387,-19.04613 -3.60669,-1.2501 -4.27577,-1.45433 -6.66819,-2.08139 -8.56603,-2.29285 -17.81888,-3.57785 -25.98445,-3.61095 -12.45081,-0.0625 -25.80617,2.5777 -37.11886,7.35948 -1.75793,0.72755 -3.21776,1.39312 -3.26281,1.47115 -0.045,0.078 -0.46417,0.30417 -0.94232,0.49626 -1.37259,0.5599 -5.81434,3.11889 -8.67252,4.97969 -2.65845,1.74207 -7.65771,5.35757 -7.84915,5.68916 -0.0563,0.0975 -0.37707,0.38047 -0.72591,0.62119 -1.75833,1.27347 -7.66989,6.65088 -9.98302,9.11247 -0.62467,0.62761 -1.48857,1.53324 -1.96129,1.98851 -1.53634,1.47966 -5.91237,6.46927 -8.54662,9.75971 -8.23766,10.22418 -18.20571,25.89911 -26.21082,41.17292 z"
                 id="path1038"
                 style="fill:#ffffff;fill-opacity:1;stroke:none;stroke-width:0.337168"
                 inkscape:transform-center-y="-21.379841"
                 inkscape:transform-center-x="67.632278" /></g></g></g></g></g></g></svg>
