<?xml version="1.0" encoding="UTF-8"?>
<svg width="3.5in" height="2in" preserveAspectRatio="xMidYMid" version="1.0" viewBox="0 0 252 144" xml:space="preserve" xmlns="http://www.w3.org/2000/svg"><metadata>
Created by potrace 1.10, written by Peter Selinger 2001-2011
</metadata><g transform="matrix(.28648 -.076763 .076763 .28648 -5.8139 531)" stroke-width="3.3717"><text transform="matrix(2.4426 .65449 -.65449 2.4426 482.31 -1724.3)" fill="#ffffff" fill-rule="evenodd" font-size="120px" stroke="#d7eef4" stroke-width="1.3333" style="shape-inside:url(#rect1036);white-space:pre" xml:space="preserve"/><g transform="translate(590.32 157.23)"><g transform="matrix(.22974 0 0 .22974 -131.74 -1717.1)" stroke-width="14.676"><ellipse cx="445.34" cy="453.1" rx="309.75" ry="309.75" fill="none" stroke="#002a47" stroke-width="14.676"/><path d="m431.01 70.687c-17.523 0.72699-35.001 3.8848-48.199 8.7239-1.2388 0.45437-2.5001 0.90874-2.8154 1.0223-0.54056 0.18174-2.9505 1.1359-3.9415 1.5676-1.6216 0.72698-7.0947 3.4532-8.784 4.4074-2.8829 1.6357-8.4686 5.3843-10.834 7.3153-14.212 11.518-25 27.262-30.879 45.096-7.0046 21.264-6.6443 44.869 1.0361 67.564 1.0135 2.9534 3.3784 9.4054 3.8289 10.473 0.11261 0.2499 1.1937 2.7944 2.41 5.6796 1.1937 2.8625 2.5451 5.9977 2.973 6.9291 1.8018 3.953 5.428 11.632 6.4416 13.631 6.3965 12.609 9.7074 18.743 15.924 29.602 2.0721 3.6122 7.0046 11.927 8.7164 14.699 1.036 1.6812 2.1622 3.4986 2.5 4.0439 0.60812 1.0223 3.7163 5.9749 5.1578 8.224 0.42793 0.68156 1.2388 1.9538 1.8018 2.8398 1.2613 1.9765 8.7164 13.268 9.6849 14.653 0.40541 0.56796 1.3739 1.9992 2.1622 3.1806 1.509 2.2718 3.7839 5.5433 5.8334 8.4058 11.577 16.198 15.608 21.492 20.563 26.899 8.784 9.6099 17.5 14.494 27.365 15.335 3.0856 0.27264 7.5677-0.11356 10.451-0.90873 0.99102-0.27265 2.0496-0.54523 2.3649-0.61339 0.31533-0.0456 0.76579-0.24994 1.0135-0.40896 0.24775-0.18172 0.5856-0.31804 0.74326-0.31804 0.29279 0 4.437-1.9765 5.3379-2.5672 1.3739-0.86333 3.8289-2.5218 4.1442-2.7943 0.2027-0.15908 1.0135-0.81787 1.8244-1.454 3.4235-2.7262 9.4822-9.2918 13.311-14.403 0.54055-0.72701 1.3964-1.8629 1.8919-2.499 4.2794-5.6114 10.361-14.085 15.991-22.241 0.4955-0.70427 1.4415-2.0901 2.1172-3.067 1.5316-2.181 11.599-17.448 13.401-20.31 0.74325-1.1586 1.7793-2.7716 2.2973-3.5895 1.9595-3.067 6.2163-10.087 10.946-18.061 3.5812-6.0658 8.2434-14.335 10.879-19.311 0.5856-1.1359 1.1487-2.1582 1.2388-2.2718 0.2928-0.43165 2.4325-4.5664 5.5632-10.791 6.9821-13.836 12.275-26.058 16.217-37.258 1.7343-4.9299 3.7839-12.177 4.3244-15.244 0.11261-0.68155 0.38289-2.0901 0.5856-3.1578 2.3199-12.45 2.3424-25.922 0.0225-38.053-0.72073-3.7485-0.8784-4.4301-1.5316-6.8155-2.2974-8.5648-5.8109-17.221-9.865-24.309-6.1713-10.814-15.135-21.06-24.933-28.466-1.509-1.1586-2.8154-2.0901-2.9055-2.0901s-0.4955-0.2499-0.90093-0.56795c-1.1712-0.90874-5.6082-3.4759-8.6488-5.0208-2.8379-1.4312-8.4686-3.953-8.8515-3.953-0.11262 0-0.51803-0.13631-0.90092-0.31806-1.982-0.88602-9.5948-3.3169-12.883-4.0893-0.85586-0.22718-2.0721-0.52252-2.7028-0.70427-2.0496-0.59068-8.5587-1.8856-12.725-2.5217-12.973-2.0219-31.532-2.8171-48.762-2.1128z" fill="#002a47"/><path d="m123.65 650.74c9.391 14.812 20.865 28.369 31.655 37.38 1.0129 0.84563 2.037 1.7107 2.293 1.927 0.42768 0.37727 2.459 1.9873 3.3283 2.6297 1.4404 1.0409 6.5379 4.4176 8.2089 5.4034 2.858 1.6788 8.8972 4.6419 11.752 5.7245 17.081 6.5488 36.11 8.02 54.494 4.194 21.918-4.566 42.18-16.68 57.995-34.679 2.0509-2.3544 6.4561-7.6285 7.1556-8.5525 0.16012-0.22247 1.8231-2.431 3.7137-4.9269 1.8822-2.465 3.9216-5.2029 4.5143-6.0393 2.5225-3.5369 7.3594-10.517 8.584-12.394 7.7212-11.844 11.378-17.778 17.674-28.591 2.0922-3.6006 6.8269-12.03 8.3713-14.898 0.93791-1.7378 1.9488-3.6218 2.2521-4.187 0.58131-1.0378 3.3163-6.2059 4.5434-8.5788 0.37628-0.71138 1.0726-2.0497 1.5584-2.9803 1.0811-2.0806 7.1318-14.182 7.8478-15.714 0.28916-0.63508 1.0444-2.1894 1.6734-3.4628 1.213-2.4428 2.9087-6.0486 4.3629-9.2548 8.2396-18.125 10.808-24.263 13.013-31.258 3.9304-12.412 3.8023-22.403-0.4023-31.367-1.3067-2.8086-3.8822-6.497-6.0123-8.5962-0.73163-0.72192-1.497-1.5024-1.7137-1.7414-0.19716-0.25028-0.59935-0.53822-0.86094-0.67327-0.28125-0.1237-0.56823-0.34812-0.64706-0.48466-0.14639-0.25356-3.9302-2.8543-4.8922-3.3392-1.4346-0.75816-4.0984-2.055-4.4921-2.1918-0.23912-0.096-1.2151-0.46881-2.1714-0.85293-4.0727-1.6018-12.788-3.5659-19.129-4.326-0.89988-0.10463-2.3115-0.27788-3.1102-0.38896-6.9993-0.90031-17.379-1.9298-27.257-2.7282-0.85766-0.077-2.5308-0.20329-3.7147-0.30002-2.6546-0.23589-20.91-1.3214-24.29-1.4506-1.375-0.0643-3.29-0.1551-4.2573-0.19479-3.6358-0.16349-11.844-0.34003-21.114-0.4491-7.0437-0.0685-16.536 0.0287-22.163 0.23418-1.2765 0.0608-2.4434 0.0843-2.5868 0.0631-0.52022-0.0377-5.1709 0.1766-12.127 0.57777-15.473 0.87106-28.704 2.3985-40.375 4.5851-5.1366 0.96302-12.438 2.8116-15.364 3.877-0.64655 0.24325-2.0015 0.71345-3.0276 1.0718-11.942 4.2158-23.62 10.932-32.966 19.007-2.886 2.4984-3.3974 2.9758-5.1366 4.7341-6.2687 6.272-12.008 13.643-16.119 20.698-6.2795 10.751-10.671 23.638-12.186 35.826-0.24889 1.8862-0.4024 3.4832-0.35735 3.5612 0.04505 0.078 0.03133 0.55406-0.04139 1.0642-0.2014 1.4686-0.20613 6.5948-0.02371 10 0.17945 3.1733 0.81093 9.3106 1.0024 9.6421 0.05631 0.0975 0.14097 0.51678 0.17501 0.93925 0.22369 2.1595 1.9249 9.9678 2.9001 13.202 0.23119 0.85479 0.58354 2.0558 0.74146 2.6928 0.51325 2.0703 2.6464 8.3549 4.1788 12.281 4.7356 12.246 13.326 28.716 22.551 43.286z" fill="#002a47"/><path d="m458.54 828.2c17.523-0.72699 35.001-3.8848 48.199-8.7239 1.2388-0.45437 2.5001-0.90874 2.8154-1.0223 0.54056-0.18174 2.9505-1.1359 3.9415-1.5676 1.6216-0.72698 7.0947-3.4532 8.784-4.4074 2.8829-1.6357 8.4686-5.3843 10.834-7.3153 14.212-11.518 25-27.262 30.879-45.096 7.0046-21.264 6.6443-44.869-1.0361-67.564-1.0135-2.9534-3.3784-9.4054-3.8289-10.473-0.11261-0.2499-1.1937-2.7944-2.41-5.6796-1.1937-2.8625-2.5451-5.9977-2.973-6.9291-1.8018-3.953-5.428-11.632-6.4416-13.631-6.3965-12.609-9.7074-18.743-15.924-29.602-2.0721-3.6122-7.0046-11.927-8.7164-14.699-1.036-1.6812-2.1622-3.4986-2.5-4.0439-0.60812-1.0223-3.7163-5.9749-5.1578-8.224-0.42793-0.68156-1.2388-1.9538-1.8018-2.8398-1.2613-1.9765-8.7164-13.268-9.6849-14.653-0.40541-0.56796-1.3739-1.9992-2.1622-3.1806-1.509-2.2718-3.7839-5.5433-5.8334-8.4058-11.577-16.198-15.608-21.492-20.563-26.899-8.784-9.6099-17.5-14.494-27.365-15.335-3.0856-0.27264-7.5677 0.11356-10.451 0.90873-0.99102 0.27265-2.0496 0.54523-2.3649 0.61339-0.31533 0.0456-0.76579 0.24994-1.0135 0.40896-0.24775 0.18172-0.5856 0.31804-0.74326 0.31804-0.29279 0-4.437 1.9765-5.3379 2.5672-1.3739 0.86333-3.8289 2.5218-4.1442 2.7943-0.2027 0.15908-1.0135 0.81787-1.8244 1.454-3.4235 2.7262-9.4822 9.2918-13.311 14.403-0.54055 0.72701-1.3964 1.8629-1.8919 2.499-4.2794 5.6114-10.361 14.085-15.991 22.241-0.4955 0.70427-1.4415 2.0901-2.1172 3.067-1.5316 2.181-11.599 17.448-13.401 20.31-0.74325 1.1586-1.7793 2.7716-2.2973 3.5895-1.9595 3.067-6.2163 10.087-10.946 18.061-3.5812 6.0658-8.2434 14.335-10.879 19.311-0.5856 1.1359-1.1487 2.1582-1.2388 2.2718-0.2928 0.43165-2.4325 4.5664-5.5632 10.791-6.9821 13.836-12.275 26.058-16.217 37.258-1.7343 4.9299-3.7839 12.177-4.3244 15.244-0.11261 0.68155-0.38289 2.0901-0.5856 3.1578-2.3199 12.45-2.3424 25.922-0.0225 38.053 0.72073 3.7485 0.8784 4.4301 1.5316 6.8155 2.2974 8.5648 5.8109 17.221 9.865 24.309 6.1713 10.814 15.135 21.06 24.933 28.466 1.509 1.1586 2.8154 2.0901 2.9055 2.0901s0.4955 0.2499 0.90093 0.56795c1.1712 0.90874 5.6082 3.4759 8.6488 5.0208 2.8379 1.4312 8.4686 3.953 8.8515 3.953 0.11262 0 0.51803 0.13631 0.90092 0.31806 1.982 0.88602 9.5948 3.3169 12.883 4.0893 0.85586 0.22718 2.0721 0.52252 2.7028 0.70427 2.0496 0.59068 8.5587 1.8856 12.725 2.5217 12.973 2.0219 31.532 2.8171 48.762 2.1128z" fill="#002a47"/><path d="m779.67 626.9c8.1318-15.539 14.136-32.254 16.544-46.104 0.22589-1.3 0.46304-2.6195 0.52232-2.9494 0.11289-0.55901 0.49153-3.1232 0.61321-4.1972 0.18124-1.7679 0.55681-7.8708 0.57509-9.8108 0.0249-3.3146-0.42859-10.026-0.91848-13.04-2.8691-18.067-11.109-35.282-23.615-49.29-14.913-16.698-35.535-28.189-59.031-32.885-3.0645-0.59896-9.8345-1.7769-10.984-1.9207-0.27272-0.0274-3.0168-0.3634-6.1236-0.75272-3.0759-0.39747-6.4667-0.79471-7.4873-0.88983-4.3243-0.41606-12.787-1.1151-15.026-1.237-14.118-0.76481-21.085-0.96449-33.598-1.0107-4.1643-0.0116-13.832 0.10263-17.088 0.19922-1.974 0.0567-4.111 0.12321-4.7521 0.14317-1.1894 0.0155-7.0326 0.23093-9.7011 0.35473-0.80421 0.0298-2.3114 0.0959-3.3602 0.14053-2.3424 0.10405-15.848 0.91484-17.533 1.0607-0.69457 0.0671-2.4183 0.19023-3.8356 0.28225-2.722 0.17094-6.6926 0.50527-10.196 0.849-19.816 1.9267-26.416 2.7715-33.577 4.3592-12.714 2.8022-21.303 7.9086-26.963 16.032-1.7789 2.5359-3.6855 6.6106-4.4383 9.5049-0.25939 0.99457-0.55261 2.0476-0.65124 2.3548-0.11818 0.29588-0.16644 0.78816-0.1526 1.0822 0.0335 0.30542-0.0174 0.66616-0.0962 0.8027-0.1464 0.25356-0.50683 4.8308-0.44574 5.9064 0.0607 1.6215 0.26946 4.5768 0.34786 4.9862 0.0364 0.25508 0.20153 1.2867 0.34704 2.3069 0.64919 4.3279 3.3059 12.858 5.8182 18.729 0.35933 0.83164 0.91512 2.1408 1.2182 2.888 2.72 6.5118 7.018 16.015 11.266 24.97 0.36217 0.78125 1.0894 2.2934 1.5975 3.367 1.123 2.4168 9.3105 18.769 10.889 21.761 0.63178 1.223 1.5107 2.9268 1.9599 3.7843 1.6763 3.2305 5.6274 10.427 10.168 18.51 3.4626 6.1343 8.293 14.307 11.284 19.076 0.69094 1.0751 1.2948 2.0739 1.3481 2.2087 0.22742 0.4694 2.7384 4.3898 6.5639 10.213 8.4908 12.964 16.429 23.659 24.158 32.673 3.4023 3.9669 8.6537 9.3654 11.04 11.367 0.53394 0.4383 1.6186 1.3766 2.442 2.0861 9.6218 8.2339 21.278 14.989 32.944 19.046 3.6067 1.2501 4.2758 1.4543 6.6682 2.0814 8.566 2.2928 17.819 3.5778 25.984 3.611 12.451 0.0625 25.806-2.5777 37.119-7.3595 1.7579-0.72755 3.2178-1.3931 3.2628-1.4712 0.0451-0.078 0.46417-0.30416 0.94232-0.49625 1.3726-0.5599 5.8143-3.1189 8.6725-4.9797 2.6584-1.7421 7.6577-5.3576 7.8492-5.6892 0.0563-0.0975 0.37706-0.38047 0.72591-0.62119 1.7583-1.2735 7.6699-6.6509 9.983-9.1125 0.62468-0.62761 1.4886-1.5332 1.9613-1.9885 1.5363-1.4796 5.9124-6.4693 8.5466-9.7597 8.2377-10.224 18.206-25.899 26.211-41.173z" fill="#002a47"/><path transform="translate(-1.2354e-6)" d="m109.88 271.99c-8.1318 15.539-14.136 32.254-16.544 46.104-0.22589 1.3-0.46304 2.6195-0.52233 2.9494-0.11289 0.55901-0.49153 3.1232-0.6132 4.1972-0.18124 1.7679-0.55682 7.8708-0.57509 9.8108-0.02489 3.3146 0.42859 10.026 0.91848 13.04 2.8691 18.067 11.109 35.282 23.615 49.29 14.913 16.698 35.535 28.189 59.031 32.885 3.0645 0.59895 9.8345 1.7769 10.984 1.9207 0.27273 0.0274 3.0168 0.36339 6.1236 0.75272 3.0759 0.39746 6.4667 0.79471 7.4873 0.88983 4.3243 0.41606 12.787 1.1151 15.026 1.237 14.118 0.7648 21.085 0.96449 33.598 1.0107 4.1643 0.0116 13.832-0.10263 17.088-0.19922 1.974-0.0567 4.111-0.12321 4.7521-0.14317 1.1894-0.0155 7.0326-0.23093 9.7011-0.35473 0.80421-0.0298 2.3114-0.0959 3.3602-0.14053 2.3424-0.10406 15.848-0.91485 17.533-1.0607 0.69457-0.0671 2.4183-0.19024 3.8356-0.28225 2.722-0.17095 6.6926-0.50527 10.196-0.849 19.816-1.9267 26.416-2.7715 33.577-4.3592 12.714-2.8022 21.303-7.9086 26.963-16.032 1.7789-2.5359 3.6855-6.6106 4.4383-9.5049 0.25939-0.99458 0.55262-2.0476 0.65125-2.3548 0.11817-0.29588 0.16644-0.78816 0.1526-1.0822-0.0335-0.30542 0.0174-0.66617 0.0962-0.8027 0.14639-0.25357 0.50683-4.8308 0.44573-5.9064-0.0607-1.6215-0.26945-4.5768-0.34785-4.9862-0.0364-0.25508-0.20153-1.2867-0.34704-2.3069-0.6492-4.3279-3.3059-12.858-5.8182-18.729-0.35933-0.83163-0.91513-2.1408-1.2182-2.888-2.72-6.5118-7.018-16.015-11.266-24.97-0.36216-0.78125-1.0893-2.2934-1.5975-3.367-1.123-2.4168-9.3105-18.769-10.889-21.761-0.63179-1.223-1.5107-2.9268-1.9599-3.7843-1.6763-3.2305-5.6274-10.427-10.168-18.51-3.4626-6.1343-8.293-14.307-11.284-19.076-0.69094-1.0751-1.2948-2.0739-1.3481-2.2087-0.22742-0.4694-2.7384-4.3898-6.5639-10.213-8.4908-12.964-16.429-23.659-24.158-32.673-3.4023-3.9669-8.6537-9.3654-11.04-11.367-0.53393-0.4383-1.6186-1.3766-2.442-2.0861-9.6218-8.2339-21.278-14.989-32.944-19.046-3.6067-1.2501-4.2758-1.4543-6.6682-2.0814-8.566-2.2928-17.819-3.5778-25.984-3.611-12.451-0.0625-25.806 2.5777-37.119 7.3595-1.7579 0.72755-3.2178 1.3931-3.2628 1.4712-0.045 0.078-0.46417 0.30417-0.94232 0.49626-1.3726 0.5599-5.8143 3.1189-8.6725 4.9797-2.6584 1.7421-7.6577 5.3576-7.8492 5.6892-0.0563 0.0975-0.37707 0.38047-0.72591 0.62119-1.7583 1.2735-7.6699 6.6509-9.983 9.1125-0.62467 0.62761-1.4886 1.5332-1.9613 1.9885-1.5363 1.4797-5.9124 6.4693-8.5466 9.7597-8.2377 10.224-18.206 25.899-26.211 41.173z" fill="#002a47"/><path d="m765.9 248.14c-9.391-14.812-20.865-28.369-31.655-37.38-1.0129-0.84563-2.037-1.7108-2.2931-1.927-0.42767-0.37726-2.459-1.9873-3.3283-2.6297-1.4404-1.0409-6.5379-4.4176-8.2089-5.4034-2.8581-1.6788-8.8972-4.6419-11.752-5.7245-17.081-6.5488-36.11-8.02-54.494-4.194-21.918 4.566-42.18 16.68-57.995 34.679-2.051 2.3544-6.4561 7.6285-7.1556 8.5525-0.16011 0.22247-1.8231 2.431-3.7137 4.9269-1.8822 2.465-3.9216 5.2029-4.5143 6.0393-2.5225 3.5369-7.3594 10.517-8.584 12.394-7.7212 11.844-11.378 17.778-17.674 28.591-2.0922 3.6006-6.8269 12.03-8.3713 14.898-0.9379 1.7378-1.9488 3.6218-2.2521 4.187-0.5813 1.0378-3.3163 6.2059-4.5434 8.5788-0.37629 0.71138-1.0726 2.0497-1.5584 2.9803-1.0811 2.0806-7.1318 14.182-7.8477 15.714-0.28917 0.63507-1.0444 2.1894-1.6734 3.4628-1.213 2.4428-2.9087 6.0486-4.3629 9.2548-8.2396 18.125-10.808 24.263-13.013 31.258-3.9304 12.412-3.8023 22.403 0.4023 31.367 1.3067 2.8086 3.8822 6.4971 6.0123 8.5962 0.73163 0.72192 1.497 1.5024 1.7137 1.7414 0.19716 0.25029 0.59935 0.53823 0.86094 0.67328 0.28125 0.12369 0.56824 0.34812 0.64707 0.48466 0.14639 0.25356 3.9302 2.8543 4.8922 3.3392 1.4346 0.75817 4.0984 2.0551 4.4921 2.1918 0.23912 0.096 1.2151 0.46881 2.1714 0.85293 4.0727 1.6017 12.788 3.5659 19.129 4.326 0.89989 0.10462 2.3116 0.27787 3.1102 0.38895 6.9993 0.90031 17.379 1.9298 27.257 2.7282 0.85767 0.077 2.5308 0.20329 3.7147 0.30002 2.6546 0.23589 20.91 1.3214 24.29 1.4506 1.375 0.0643 3.29 0.1551 4.2573 0.19479 3.6358 0.16349 11.844 0.34003 21.114 0.44909 7.0437 0.0685 16.536-0.0286 22.163-0.23417 1.2765-0.0608 2.4434-0.0843 2.5868-0.0631 0.52022 0.0377 5.1708-0.1766 12.127-0.57777 15.473-0.87106 28.704-2.3985 40.375-4.5851 5.1365-0.96303 12.438-2.8116 15.364-3.877 0.64654-0.24326 2.0015-0.71346 3.0276-1.0718 11.942-4.2158 23.62-10.932 32.966-19.007 2.886-2.4984 3.3974-2.9758 5.1366-4.7341 6.2687-6.272 12.008-13.643 16.119-20.698 6.2795-10.751 10.671-23.638 12.186-35.826 0.2489-1.8862 0.4024-3.4832 0.35735-3.5612-0.0451-0.078-0.0313-0.55407 0.0414-1.0642 0.2014-1.4686 0.20613-6.5948 0.0237-10-0.17945-3.1733-0.81093-9.3106-1.0024-9.6421-0.0563-0.0975-0.14097-0.51679-0.17502-0.93925-0.22369-2.1595-1.9249-9.9678-2.9001-13.202-0.23119-0.85479-0.58354-2.0558-0.74146-2.6928-0.51325-2.0703-2.6464-8.3549-4.1788-12.281-4.7356-12.246-13.326-28.716-22.551-43.286z" fill="#002a47"/><text transform="matrix(.9631 .25806 -.25958 .96876 0 0)" x="1066.5232" y="545.55634" fill="#002a47" fill-rule="evenodd" font-size="624.56px" stroke="#d7eef4" stroke-width="0" xml:space="preserve"><tspan x="1066.5232" y="545.55634" fill="#002a47" font-family="'Century Gothic'" stroke-width="0">SAGE.ai</tspan></text></g></g></g></svg>
